<?xml version="1.0" encoding="UTF-8" standalone="no"?>
<svg
   xmlns:dc="http://purl.org/dc/elements/1.1/"
   xmlns:cc="http://creativecommons.org/ns#"
   xmlns:rdf="http://www.w3.org/1999/02/22-rdf-syntax-ns#"
   xmlns:svg="http://www.w3.org/2000/svg"
   xmlns="http://www.w3.org/2000/svg"
   id="svg47"
   version="1.2"
   viewBox="0 0 327.03 268.16"
   height="268.16pt"
   width="327.03pt">
  <metadata
     id="metadata53">
    <rdf:RDF>
      <cc:Work
         rdf:about="">
        <dc:format>image/svg+xml</dc:format>
        <dc:type
           rdf:resource="http://purl.org/dc/dcmitype/StillImage" />
        <dc:title></dc:title>
      </cc:Work>
    </rdf:RDF>
  </metadata>
  <defs
     id="defs51" />
  <g
     id="surface1119">
    <path
       id="path2"
       d="M 24.417969 200.476562 L 24.417969 178.964844 L 27.257812 178.964844 L 27.257812 197.921875 L 36.667969 197.921875 L 36.667969 200.476562 L 24.417969 200.476562 "
       style=" stroke:none;fill-rule:nonzero;fill:rgb(100%,100%,100%);fill-opacity:1;" />
    <path
       id="path4"
       d="M 45.328125 187.160156 C 44.128906 187.160156 43.117188 187.550781 42.304688 188.328125 C 41.527344 189.066406 41.085938 189.984375 40.984375 191.082031 L 49.410156 191.082031 C 49.410156 189.996094 49.070312 189.089844 48.382812 188.355469 C 47.640625 187.558594 46.613281 187.160156 45.328125 187.160156 Z M 51.882812 193.046875 L 40.914062 193.046875 C 40.914062 194.828125 41.398438 196.199219 42.375 197.148438 C 43.234375 197.988281 44.34375 198.402344 45.699219 198.402344 C 47.242188 198.402344 48.53125 197.953125 49.570312 197.054688 L 50.703125 199 C 50.285156 199.421875 49.644531 199.777344 48.78125 200.082031 C 47.703125 200.476562 46.5 200.679688 45.171875 200.679688 C 43.261719 200.679688 41.636719 200.023438 40.300781 198.726562 C 38.816406 197.300781 38.070312 195.378906 38.070312 192.957031 C 38.070312 190.453125 38.832031 188.4375 40.355469 186.925781 C 41.722656 185.566406 43.335938 184.886719 45.207031 184.886719 C 47.371094 184.886719 49.070312 185.496094 50.308594 186.722656 C 51.492188 187.898438 52.09375 189.453125 52.09375 191.398438 C 52.09375 191.996094 52.019531 192.542969 51.882812 193.046875 "
       style=" stroke:none;fill-rule:nonzero;fill:rgb(100%,100%,100%);fill-opacity:1;" />
    <path
       id="path6"
       d="M 58.25 179.503906 C 58.714844 179.503906 59.113281 179.664062 59.4375 179.992188 C 59.769531 180.316406 59.925781 180.710938 59.925781 181.164062 C 59.925781 181.625 59.769531 182.023438 59.4375 182.351562 C 59.113281 182.675781 58.714844 182.84375 58.25 182.84375 C 57.800781 182.84375 57.40625 182.675781 57.078125 182.351562 C 56.753906 182.023438 56.589844 181.625 56.589844 181.164062 C 56.589844 180.695312 56.75 180.308594 57.070312 179.980469 C 57.394531 179.664062 57.785156 179.503906 58.25 179.503906 Z M 57.167969 200.476562 L 57.167969 187.527344 L 55.078125 187.527344 L 55.078125 185.253906 L 59.863281 185.253906 L 59.863281 200.476562 L 57.167969 200.476562 "
       style=" stroke:none;fill-rule:nonzero;fill:rgb(100%,100%,100%);fill-opacity:1;" />
    <path
       id="path8"
       d="M 67.808594 188.441406 L 67.808594 197.222656 C 67.808594 197.375 68.144531 197.625 68.820312 197.96875 C 69.492188 198.3125 70.003906 198.488281 70.355469 198.488281 C 72.191406 198.488281 73.511719 198.046875 74.304688 197.164062 C 75.101562 196.285156 75.496094 194.804688 75.496094 192.730469 C 75.496094 191.003906 75.035156 189.660156 74.105469 188.695312 C 73.175781 187.730469 71.925781 187.242188 70.355469 187.242188 C 70.023438 187.242188 69.5625 187.390625 68.96875 187.675781 C 68.375 187.953125 67.988281 188.207031 67.808594 188.441406 Z M 67.414062 199.386719 L 66.460938 200.761719 L 65.109375 200.761719 L 65.109375 178.875 L 67.808594 178.875 L 67.808594 186.382812 C 68.066406 186.027344 68.546875 185.703125 69.25 185.410156 C 69.960938 185.121094 70.652344 184.96875 71.335938 184.96875 C 73.417969 184.96875 75.105469 185.691406 76.398438 187.128906 C 77.691406 188.574219 78.339844 190.394531 78.339844 192.589844 C 78.339844 195.128906 77.691406 197.128906 76.390625 198.578125 C 75.09375 200.035156 73.335938 200.761719 71.121094 200.761719 C 70.402344 200.761719 69.699219 200.628906 68.996094 200.359375 C 68.300781 200.085938 67.773438 199.765625 67.414062 199.386719 "
       style=" stroke:none;fill-rule:nonzero;fill:rgb(100%,100%,100%);fill-opacity:1;" />
    <path
       id="path10"
       d="M 91.367188 200.476562 L 91.367188 191.625 C 91.367188 190.003906 91.121094 188.867188 90.636719 188.222656 C 90.148438 187.566406 89.328125 187.242188 88.183594 187.242188 C 87.570312 187.242188 86.921875 187.429688 86.253906 187.800781 C 85.578125 188.167969 85.0625 188.625 84.707031 189.164062 L 84.707031 200.476562 L 82.003906 200.476562 L 82.003906 185.253906 L 83.847656 185.253906 L 84.707031 187.21875 C 85.59375 185.71875 87.046875 184.96875 89.066406 184.96875 C 92.398438 184.96875 94.066406 186.996094 94.066406 191.058594 L 94.066406 200.476562 L 91.367188 200.476562 "
       style=" stroke:none;fill-rule:nonzero;fill:rgb(100%,100%,100%);fill-opacity:1;" />
    <path
       id="path12"
       d="M 100.757812 179.503906 C 101.222656 179.503906 101.617188 179.664062 101.945312 179.992188 C 102.273438 180.316406 102.433594 180.710938 102.433594 181.164062 C 102.433594 181.625 102.273438 182.023438 101.945312 182.351562 C 101.617188 182.675781 101.222656 182.84375 100.757812 182.84375 C 100.300781 182.84375 99.910156 182.675781 99.582031 182.351562 C 99.257812 182.023438 99.09375 181.625 99.09375 181.164062 C 99.09375 180.695312 99.253906 180.308594 99.578125 179.980469 C 99.898438 179.664062 100.292969 179.503906 100.757812 179.503906 Z M 99.671875 200.476562 L 99.671875 187.527344 L 97.582031 187.527344 L 97.582031 185.253906 L 102.371094 185.253906 L 102.371094 200.476562 L 99.671875 200.476562 "
       style=" stroke:none;fill-rule:nonzero;fill:rgb(100%,100%,100%);fill-opacity:1;" />
    <path
       id="path14"
       d="M 111.117188 198.058594 L 119.558594 198.058594 L 119.558594 200.476562 L 106.882812 200.476562 L 106.882812 199.769531 L 115.535156 187.675781 L 107.027344 187.675781 L 107.027344 185.253906 L 119.476562 185.253906 L 119.476562 186.019531 L 111.117188 198.058594 "
       style=" stroke:none;fill-rule:nonzero;fill:rgb(100%,100%,100%);fill-opacity:1;" />
    <path
       id="path16"
       d="M 187.617188 120.546875 C 186.519531 122.335938 184.457031 118.277344 180.484375 123.425781 C 178.835938 125.585938 179.9375 128.15625 177.910156 130.464844 C 175.640625 133.027344 173.484375 135.085938 175.230469 127.890625 C 177.011719 120.578125 176.105469 123.628906 176.972656 120.488281 C 177.902344 117.019531 181.242188 105.003906 182.390625 102.492188 C 184.015625 98.9375 184.421875 97.273438 188.789062 90.792969 C 188.789062 90.792969 191.847656 86.925781 192.40625 86.359375 C 194.769531 83.941406 203.570312 79.738281 199.355469 95.710938 C 196.003906 108.398438 193.363281 111.316406 187.617188 120.546875 Z M 188.15625 138.910156 C 186.683594 144.585938 184.121094 153.609375 181.917969 156.40625 C 180.394531 158.347656 176.667969 163.941406 173.824219 154.253906 C 170.992188 144.546875 177.851562 136.253906 177.851562 136.253906 C 177.851562 136.253906 180.746094 132.398438 182.644531 132.398438 C 184.984375 132.402344 189.636719 133.253906 188.15625 138.910156 Z M 36.855469 136.855469 C 35.277344 137.511719 30.875 133.886719 31.050781 131.933594 C 31.363281 128.089844 35.394531 131.964844 40.035156 131.789062 C 44.730469 131.59375 38.515625 136.144531 36.855469 136.855469 Z M 108.621094 57.589844 C 113.269531 53.0625 116.785156 49.511719 119.824219 46.691406 C 134.070312 33.476562 133.726562 34.570312 135.742188 33.265625 C 139.511719 30.828125 148.128906 26.113281 150.746094 28.441406 C 153.644531 31.015625 152.425781 36.589844 147.902344 41.4375 C 143.246094 46.425781 129.855469 60.023438 118.09375 66.542969 C 110.160156 70.9375 78.488281 86.941406 108.621094 57.589844 Z M 230.726562 147.546875 C 232.15625 149.378906 235.734375 152.648438 244.457031 144.316406 C 253.195312 135.984375 248.753906 139.503906 253.707031 150.222656 C 258.664062 160.929688 261.609375 154.933594 261.878906 152.824219 C 262.535156 147.546875 260.753906 137.242188 259.578125 133.058594 C 258.589844 129.554688 252.464844 127.898438 250.054688 129.703125 C 247.773438 131.386719 241.761719 138.3125 237.714844 139.667969 C 233.667969 141.027344 236.828125 137.097656 235.714844 130.636719 C 234.601562 124.179688 232.160156 121.28125 229.617188 122.410156 C 227.910156 123.171875 224.285156 126.851562 222.40625 126.089844 C 218.410156 124.496094 212.960938 119.804688 201.984375 125.402344 C 182.101562 135.542969 196.851562 114.824219 196.851562 114.824219 C 196.851562 114.824219 211.53125 91.828125 203.800781 79.976562 C 196.253906 68.410156 182.828125 88.839844 179.507812 95.160156 C 175.074219 103.578125 171.617188 115.070312 167.820312 132.402344 C 165.613281 142.472656 153.398438 146.238281 150.324219 142.34375 C 147.015625 138.144531 147.664062 121.359375 136.164062 128.589844 C 124.664062 135.8125 125.019531 149.917969 117.800781 134.054688 C 110.589844 118.191406 103.421875 128.5625 102.496094 130.253906 C 101.214844 132.628906 101.972656 137.777344 100.019531 138.925781 C 97.820312 140.222656 94.972656 135.746094 93.277344 135.144531 C 91.464844 134.519531 79.890625 144.257812 74.71875 154.414062 C 67.265625 169.054688 52.835938 137.925781 54.007812 135.71875 C 55.019531 133.796875 83.042969 94.71875 86.410156 89.015625 C 89.992188 82.960938 92.585938 80.992188 94.765625 80.664062 C 96.933594 80.339844 123.589844 73.820312 144.066406 53.242188 C 161.425781 35.800781 159.738281 30.34375 156.171875 25.570312 C 155.105469 24.160156 153.523438 23.101562 151.433594 22.390625 C 141.035156 18.878906 117.035156 41.175781 114.828125 43.292969 C 111.253906 46.738281 90.070312 70.414062 88.527344 73.601562 C 86.980469 76.792969 49.96875 75.855469 49.96875 75.855469 C 45.699219 78.015625 50.496094 79.695312 50.496094 79.695312 C 50.496094 79.695312 67.207031 81.925781 77.59375 81.386719 C 86.585938 80.917969 81.359375 86.828125 80.019531 88.546875 C 72.292969 98.449219 58.882812 119.601562 53.96875 125.425781 C 49.269531 130.996094 40.445312 125.714844 37.960938 125.226562 C 35.414062 124.726562 21.429688 122.816406 24.742188 134.488281 C 28.066406 146.164062 38.644531 140.792969 43.214844 141.835938 C 44.609375 142.148438 47.84375 143.664062 48.632812 145.441406 C 50.394531 149.351562 52.65625 153.722656 54.570312 156.695312 C 57.757812 161.636719 71.46875 174.839844 80.820312 156.914062 C 91.097656 137.207031 98.300781 144.496094 99.03125 155.082031 C 99.773438 165.660156 103.121094 161.652344 106.949219 159.898438 C 110.765625 158.152344 107.378906 150.855469 107.664062 141.246094 C 107.9375 131.636719 116.632812 146.039062 116.835938 149.886719 C 116.984375 152.699219 122.070312 153.105469 127.316406 150.902344 C 132.558594 148.699219 127.382812 144.621094 134.535156 137.863281 C 141.714844 131.117188 143.035156 146.558594 144.703125 150.296875 C 146.105469 153.417969 153.085938 158.957031 157.265625 150.941406 C 160.941406 143.886719 168.410156 146.226562 168.515625 156.363281 C 168.605469 164.8125 174.746094 166.550781 177.078125 166.628906 C 177.914062 166.660156 178.875 166.570312 180.195312 166.03125 C 184.824219 164.132812 192.15625 153.949219 192.0625 145.007812 C 191.902344 129.835938 216.570312 127.394531 214.808594 132.542969 C 213.53125 136.246094 208.066406 147.179688 214.742188 146.933594 C 221.414062 146.6875 218.574219 140.976562 224.71875 134.402344 C 230.859375 127.835938 228.324219 144.472656 230.726562 147.546875 "
       style=" stroke:none;fill-rule:nonzero;fill:rgb(100%,100%,100%);fill-opacity:1;" />
    <path
       id="path18"
       d="M 148.878906 90.371094 C 148.148438 99.738281 153.914062 96.617188 153.914062 96.617188 C 164.636719 90.929688 156 85.9375 156 85.9375 C 156 85.9375 149.640625 81.003906 148.878906 90.371094 "
       style=" stroke:none;fill-rule:nonzero;fill:rgb(100%,100%,100%);fill-opacity:1;" />
    <path
       id="path20"
       d="M 283.191406 198.058594 C 283.191406 198.058594 272.035156 221.433594 270.636719 223.585938 C 268.949219 226.195312 260.261719 238.5625 247.257812 240.445312 C 234.246094 242.335938 227.792969 237.238281 227.511719 230.789062 C 227.226562 224.636719 231.558594 220.46875 245.839844 213.539062 C 277.851562 198.007812 279.300781 197.128906 279.300781 197.128906 C 281.601562 196.214844 286.050781 193.226562 283.191406 198.058594 Z M 285.523438 141.019531 C 285.484375 141.171875 285.441406 141.300781 285.410156 141.394531 Z M 304.988281 177.335938 C 304.433594 175.886719 302.964844 174.027344 298.617188 179.371094 C 291.964844 187.554688 292.636719 182.613281 291.953125 177.300781 C 291.839844 176.402344 291.136719 172.152344 288.101562 170.539062 C 285.324219 169.070312 273.96875 165.308594 276.78125 163.085938 C 283.714844 157.613281 283.519531 158.023438 285.550781 155.734375 C 288.019531 152.957031 296.058594 142.65625 295.398438 132.367188 C 294.632812 120.398438 277.558594 121.773438 277.558594 121.773438 C 265.871094 123.570312 271.175781 133.785156 279.261719 132.523438 C 288.195312 131.125 286.089844 138.953125 285.523438 141.019531 C 285.515625 141.035156 284.582031 143.515625 282.683594 146.515625 C 280.148438 150.527344 276.316406 155.789062 273.957031 158.410156 C 272.421875 160.117188 263.488281 165.925781 269.933594 169.003906 C 280.640625 174.097656 288.96875 186.492188 283.519531 189.878906 C 279.710938 192.25 249.386719 206.289062 242.609375 209.285156 C 236.066406 212.1875 221.445312 217.464844 221.570312 231.578125 C 221.710938 246.785156 242.699219 246.667969 247.3125 245.859375 C 260.585938 243.546875 267.644531 236.25 272.636719 230.179688 C 276.898438 224.996094 286.949219 203.890625 288.117188 200.160156 C 289.105469 196.992188 293.054688 185.210938 298.699219 183.617188 C 305.027344 181.832031 305.785156 179.457031 304.988281 177.335938 "
       style=" stroke:none;fill-rule:nonzero;fill:rgb(100%,100%,100%);fill-opacity:1;" />
    <path
       id="path22"
       d="M 273.761719 94.992188 C 270.910156 93.882812 262.589844 98.3125 265.210938 105.441406 C 267.894531 112.714844 286.769531 100.089844 273.761719 94.992188 "
       style=" stroke:none;fill-rule:nonzero;fill:rgb(100%,100%,100%);fill-opacity:1;" />
    <path
       id="path24"
       d="M 31.179688 215.285156 L 27.695312 224.3125 L 34.375 224.3125 Z M 36.796875 231.546875 L 35.25 226.652344 L 26.878906 226.652344 L 25.222656 231.546875 L 21.785156 231.546875 L 30.589844 209.613281 L 32.066406 209.613281 L 40.207031 231.546875 L 36.796875 231.546875 "
       style=" stroke:none;fill-rule:nonzero;fill:rgb(100%,100%,100%);fill-opacity:1;" />
    <path
       id="path26"
       d="M 43.863281 230.632812 L 44.832031 228.058594 C 46.363281 229.050781 47.601562 229.542969 48.535156 229.542969 C 50.230469 229.542969 51.082031 228.839844 51.082031 227.429688 C 51.082031 226.417969 50.261719 225.550781 48.621094 224.828125 C 47.359375 224.253906 46.507812 223.824219 46.070312 223.527344 C 45.628906 223.230469 45.25 222.894531 44.925781 222.519531 C 44.601562 222.144531 44.359375 221.742188 44.203125 221.316406 C 44.042969 220.894531 43.964844 220.441406 43.964844 219.953125 C 43.964844 218.695312 44.425781 217.714844 45.351562 217.007812 C 46.28125 216.304688 47.488281 215.953125 48.984375 215.953125 C 50.109375 215.953125 51.535156 216.304688 53.25 217.007812 L 52.46875 219.523438 C 51.382812 218.667969 50.285156 218.238281 49.1875 218.238281 C 48.53125 218.238281 47.976562 218.390625 47.53125 218.695312 C 47.082031 219 46.855469 219.386719 46.855469 219.851562 C 46.855469 220.835938 47.421875 221.578125 48.546875 222.082031 L 50.519531 222.96875 C 51.722656 223.511719 52.597656 224.132812 53.148438 224.828125 C 53.699219 225.523438 53.972656 226.394531 53.972656 227.441406 C 53.972656 228.816406 53.488281 229.890625 52.511719 230.664062 C 51.539062 231.441406 50.191406 231.832031 48.460938 231.832031 C 46.832031 231.832031 45.300781 231.433594 43.863281 230.632812 "
       style=" stroke:none;fill-rule:nonzero;fill:rgb(100%,100%,100%);fill-opacity:1;" />
    <path
       id="path28"
       d="M 57.472656 230.632812 L 58.441406 228.058594 C 59.972656 229.050781 61.210938 229.542969 62.144531 229.542969 C 63.839844 229.542969 64.691406 228.839844 64.691406 227.429688 C 64.691406 226.417969 63.871094 225.550781 62.230469 224.828125 C 60.96875 224.253906 60.117188 223.824219 59.675781 223.527344 C 59.238281 223.230469 58.855469 222.894531 58.535156 222.519531 C 58.210938 222.144531 57.96875 221.742188 57.8125 221.316406 C 57.652344 220.894531 57.574219 220.441406 57.574219 219.953125 C 57.574219 218.695312 58.035156 217.714844 58.960938 217.007812 C 59.886719 216.304688 61.097656 215.953125 62.59375 215.953125 C 63.722656 215.953125 65.144531 216.304688 66.859375 217.007812 L 66.078125 219.523438 C 64.988281 218.667969 63.894531 218.238281 62.792969 218.238281 C 62.140625 218.238281 61.585938 218.390625 61.140625 218.695312 C 60.691406 219 60.46875 219.386719 60.46875 219.851562 C 60.46875 220.835938 61.03125 221.578125 62.160156 222.082031 L 64.125 222.96875 C 65.332031 223.511719 66.210938 224.132812 66.757812 224.828125 C 67.308594 225.523438 67.582031 226.394531 67.582031 227.441406 C 67.582031 228.816406 67.09375 229.890625 66.121094 230.664062 C 65.148438 231.441406 63.796875 231.832031 62.074219 231.832031 C 60.441406 231.832031 58.90625 231.433594 57.472656 230.632812 "
       style=" stroke:none;fill-rule:nonzero;fill:rgb(100%,100%,100%);fill-opacity:1;" />
    <path
       id="path30"
       d="M 73.921875 223.855469 C 73.921875 227.695312 75.296875 229.617188 78.042969 229.617188 C 79.328125 229.617188 80.335938 229.101562 81.0625 228.070312 C 81.789062 227.042969 82.152344 225.636719 82.152344 223.855469 C 82.152344 220.0625 80.785156 218.167969 78.042969 218.167969 C 76.792969 218.167969 75.789062 218.671875 75.042969 219.679688 C 74.296875 220.691406 73.921875 222.082031 73.921875 223.855469 Z M 71.03125 223.855469 C 71.03125 221.492188 71.671875 219.585938 72.960938 218.132812 C 74.246094 216.675781 75.945312 215.953125 78.042969 215.953125 C 80.265625 215.953125 81.984375 216.648438 83.210938 218.046875 C 84.433594 219.441406 85.046875 221.378906 85.046875 223.855469 C 85.046875 226.324219 84.417969 228.269531 83.164062 229.695312 C 81.914062 231.117188 80.207031 231.832031 78.042969 231.832031 C 75.835938 231.832031 74.113281 231.113281 72.882812 229.675781 C 71.648438 228.234375 71.03125 226.296875 71.03125 223.855469 "
       style=" stroke:none;fill-rule:nonzero;fill:rgb(100%,100%,100%);fill-opacity:1;" />
    <path
       id="path32"
       d="M 101.269531 217.480469 L 99.910156 219.394531 C 99.632812 219.117188 99.136719 218.859375 98.425781 218.609375 C 97.71875 218.363281 97.023438 218.238281 96.335938 218.238281 C 94.84375 218.238281 93.65625 218.753906 92.78125 219.789062 C 91.902344 220.824219 91.464844 222.238281 91.464844 224.039062 C 91.464844 225.832031 91.910156 227.199219 92.808594 228.136719 C 93.707031 229.074219 94.949219 229.542969 96.539062 229.542969 C 97.777344 229.542969 99.019531 229.074219 100.273438 228.128906 L 101.355469 230.417969 C 99.882812 231.359375 98.054688 231.832031 95.875 231.832031 C 93.765625 231.832031 92.019531 231.132812 90.640625 229.730469 C 89.261719 228.328125 88.570312 226.433594 88.570312 224.039062 C 88.570312 221.601562 89.285156 219.644531 90.71875 218.167969 C 92.152344 216.6875 94.109375 215.953125 96.597656 215.953125 C 97.398438 215.953125 98.265625 216.117188 99.203125 216.453125 C 100.140625 216.785156 100.828125 217.128906 101.269531 217.480469 "
       style=" stroke:none;fill-rule:nonzero;fill:rgb(100%,100%,100%);fill-opacity:1;" />
    <path
       id="path34"
       d="M 108.265625 210.449219 C 108.730469 210.449219 109.128906 210.613281 109.460938 210.941406 C 109.789062 211.269531 109.953125 211.664062 109.953125 212.121094 C 109.953125 212.585938 109.789062 212.984375 109.460938 213.3125 C 109.128906 213.644531 108.730469 213.808594 108.265625 213.808594 C 107.808594 213.808594 107.414062 213.644531 107.085938 213.3125 C 106.757812 212.984375 106.59375 212.585938 106.59375 212.121094 C 106.59375 211.65625 106.753906 211.257812 107.078125 210.933594 C 107.402344 210.609375 107.800781 210.449219 108.265625 210.449219 Z M 107.265625 231.546875 L 107.265625 218.523438 L 105.160156 218.523438 L 105.160156 216.238281 L 109.980469 216.238281 L 109.980469 231.546875 L 107.265625 231.546875 "
       style=" stroke:none;fill-rule:nonzero;fill:rgb(100%,100%,100%);fill-opacity:1;" />
    <path
       id="path36"
       d="M 124.164062 224.027344 C 123.308594 223.835938 122.707031 223.742188 122.363281 223.742188 C 120.988281 223.742188 119.871094 224.09375 119.003906 224.800781 C 118.136719 225.503906 117.703125 226.339844 117.703125 227.300781 C 117.703125 228.890625 118.640625 229.6875 120.519531 229.6875 C 121.890625 229.6875 123.105469 229.035156 124.164062 227.730469 Z M 124.421875 229.789062 C 123.335938 231.152344 121.671875 231.832031 119.433594 231.832031 C 118.230469 231.832031 117.191406 231.394531 116.308594 230.523438 C 115.429688 229.652344 114.988281 228.566406 114.988281 227.273438 C 114.988281 225.71875 115.664062 224.40625 117.023438 223.335938 C 118.382812 222.261719 120.113281 221.726562 122.21875 221.726562 C 122.792969 221.726562 123.441406 221.851562 124.164062 222.097656 C 124.164062 219.621094 123.058594 218.382812 120.847656 218.382812 C 119.148438 218.382812 117.84375 218.839844 116.933594 219.753906 L 115.789062 217.480469 C 116.304688 217.0625 117.015625 216.699219 117.925781 216.402344 C 118.835938 216.101562 119.703125 215.953125 120.53125 215.953125 C 122.753906 215.953125 124.367188 216.457031 125.371094 217.46875 C 126.378906 218.476562 126.878906 220.082031 126.878906 222.28125 L 126.878906 227.773438 C 126.878906 229.113281 127.28125 230.011719 128.078125 230.457031 L 128.078125 231.816406 C 126.976562 231.816406 126.148438 231.660156 125.601562 231.347656 C 125.054688 231.03125 124.660156 230.511719 124.421875 229.789062 "
       style=" stroke:none;fill-rule:nonzero;fill:rgb(100%,100%,100%);fill-opacity:1;" />
    <path
       id="path38"
       d="M 132.78125 218.382812 L 131.011719 218.382812 L 131.011719 216.238281 L 132.78125 216.238281 L 132.78125 213.035156 L 135.5 211.992188 L 135.5 216.238281 L 139.699219 216.238281 L 139.699219 218.382812 L 135.5 218.382812 L 135.5 225.984375 C 135.5 227.273438 135.714844 228.1875 136.148438 228.730469 C 136.582031 229.273438 137.28125 229.542969 138.242188 229.542969 C 138.9375 229.542969 139.65625 229.367188 140.402344 229.015625 L 140.800781 231.402344 C 139.679688 231.6875 138.441406 231.832031 137.101562 231.832031 C 135.890625 231.832031 134.867188 231.382812 134.03125 230.480469 C 133.199219 229.578125 132.78125 228.441406 132.78125 227.070312 L 132.78125 218.382812 "
       style=" stroke:none;fill-rule:nonzero;fill:rgb(100%,100%,100%);fill-opacity:1;" />
    <path
       id="path40"
       d="M 147.375 210.449219 C 147.84375 210.449219 148.242188 210.613281 148.570312 210.941406 C 148.898438 211.269531 149.0625 211.664062 149.0625 212.121094 C 149.0625 212.585938 148.898438 212.984375 148.570312 213.3125 C 148.242188 213.644531 147.84375 213.808594 147.375 213.808594 C 146.917969 213.808594 146.527344 213.644531 146.195312 213.3125 C 145.867188 212.984375 145.703125 212.585938 145.703125 212.121094 C 145.703125 211.65625 145.863281 211.257812 146.1875 210.933594 C 146.515625 210.609375 146.910156 210.449219 147.375 210.449219 Z M 146.347656 231.546875 L 146.347656 218.523438 L 144.246094 218.523438 L 144.246094 216.238281 L 149.0625 216.238281 L 149.0625 231.546875 L 146.347656 231.546875 "
       style=" stroke:none;fill-rule:nonzero;fill:rgb(100%,100%,100%);fill-opacity:1;" />
    <path
       id="path42"
       d="M 156.652344 223.855469 C 156.652344 227.695312 158.054688 229.617188 160.863281 229.617188 C 162.175781 229.617188 163.203125 229.101562 163.945312 228.070312 C 164.6875 227.042969 165.0625 225.636719 165.0625 223.855469 C 165.0625 220.0625 163.660156 218.167969 160.863281 218.167969 C 159.585938 218.167969 158.5625 218.671875 157.800781 219.679688 C 157.035156 220.691406 156.652344 222.082031 156.652344 223.855469 Z M 153.695312 223.855469 C 153.695312 221.492188 154.355469 219.585938 155.671875 218.132812 C 156.984375 216.675781 158.714844 215.953125 160.863281 215.953125 C 163.132812 215.953125 164.890625 216.648438 166.140625 218.046875 C 167.390625 219.441406 168.015625 221.378906 168.015625 223.855469 C 168.015625 226.324219 167.378906 228.269531 166.097656 229.695312 C 164.816406 231.117188 163.070312 231.832031 160.863281 231.832031 C 158.605469 231.832031 156.847656 231.113281 155.589844 229.675781 C 154.328125 228.234375 153.695312 226.296875 153.695312 223.855469 "
       style=" stroke:none;fill-rule:nonzero;fill:rgb(100%,100%,100%);fill-opacity:1;" />
    <path
       id="path44"
       d="M 181.308594 231.546875 L 181.308594 222.640625 C 181.308594 221.011719 181.0625 219.871094 180.570312 219.214844 C 180.078125 218.566406 179.257812 218.238281 178.105469 218.238281 C 177.484375 218.238281 176.839844 218.421875 176.160156 218.796875 C 175.484375 219.167969 174.964844 219.625 174.605469 220.167969 L 174.605469 231.546875 L 171.886719 231.546875 L 171.886719 216.238281 L 173.746094 216.238281 L 174.605469 218.210938 C 175.496094 216.703125 176.960938 215.953125 178.992188 215.953125 C 182.347656 215.953125 184.023438 217.992188 184.023438 222.066406 L 184.023438 231.546875 L 181.308594 231.546875 "
       style=" stroke:none;fill-rule:nonzero;fill:rgb(100%,100%,100%);fill-opacity:1;" />
  </g>
</svg>
