<?xml version="1.0" encoding="utf-8"?>
<!-- Generator: Adobe Illustrator 13.0.0, SVG Export Plug-In . SVG Version: 6.00 Build 14948)  -->
<!DOCTYPE svg PUBLIC "-//W3C//DTD SVG 1.1//EN" "http://www.w3.org/Graphics/SVG/1.1/DTD/svg11.dtd">
<svg version="1.1" id="Ebene_1" xmlns="http://www.w3.org/2000/svg" xmlns:xlink="http://www.w3.org/1999/xlink" x="0px" y="0px"
	 width="354.332px" height="91.896px" viewBox="0 0 354.332 91.896" enable-background="new 0 0 354.332 91.896"
	 xml:space="preserve">
<path fill="#FFFFFF" d="M48.72,59.09V9.794c0-4.515-2.018-6.531-6.535-6.531H30.56v10.38h3.841c1.342,0,2.111,0.672,2.111,2.112
	v8.647c0,1.634,0.101,2.884,0.101,2.884h-0.194c0,0-3.461-5.959-14.124-5.959C9.32,21.327,0,31.419,0,46.986
	c0,15.183,8.553,25.656,21.815,25.659c11.243,0,15.279-7.978,15.279-7.978h0.193v1.824c0,2.884,1.631,4.998,6.053,4.998h11.239
	V61.205h-3.742C49.488,61.205,48.72,60.439,48.72,59.09z M24.506,62.359c-7.208,0-12.111-6.053-12.111-15.373
	c0-9.707,5.578-15.182,12.3-15.182c8.171,0,12.112,7.493,12.112,15.085C36.807,57.75,30.847,62.359,24.506,62.359z M242.895,9.794
	v31.23c0,3.938,0.674,9.608,0.674,9.608h-0.191c0,0-2.979-5.67-5.672-9.608L211.854,3.26h-11.338v55.447
	c0,1.311-0.74,2.018-2.013,2.058v-0.008h-8.346c-2.601,4.104-5.873,7.729-9.668,10.732h26.073c4.613,0,6.531-1.924,6.531-6.535
	V33.821c0-3.941-0.668-9.61-0.668-9.61h0.188c0,0,2.979,5.769,5.672,9.61l25.942,37.67h11.244V16.042
	c0-1.343,0.769-2.111,2.114-2.111h4.132V3.26h-12.291C244.816,3.26,242.895,5.281,242.895,9.794z M310.547,35.643v-0.189
	c4.135-2.115,8.264-7.014,8.264-14.604c0-11.244-8.84-17.591-21.139-17.591h-29.504v10.669h6.246v51.026
	c0,4.611,2.016,6.534,6.533,6.534h17.012c12.686,0,23.545-6.152,23.545-19.798C321.504,44.773,317.949,37.854,310.547,35.643z
	 M287.006,13.93h10.574c5.572,0,8.453,3.557,8.453,8.455c0,4.901-2.983,8.743-8.268,8.743h-10.76V13.93z M298.922,60.823h-9.803
	c-1.348,0-2.118-0.769-2.117-2.115V41.125h11.92c6.05,0,9.607,4.131,9.607,9.801C308.529,56.689,305.068,60.823,298.922,60.823z
	 M353.656,60.823h-6.828V13.928h6.828V3.26h-26.569v10.669h7.827v46.895h-7.827V71.49h26.569V60.823z M83.083,71.63
	c0.803,0,1.58-0.01,2.349-0.021l41.931,0.007l-0.187-0.138c-3.789-3.002-7.058-6.625-9.654-10.724H81.291
	c-5.758-0.63-8.17-3.943-9.028-11.655h33.827c0,0,0.287-3.076,0.287-4.519c0-12.976-7.684-23.256-21.714-23.256
	c-14.704,0-24.894,10.571-24.894,25.658C59.769,60.918,66.847,71.63,83.083,71.63z M84.663,30.745c4.998,0,9.033,4.037,9.221,9.897
	H72.65C73.994,34.493,78.416,30.745,84.663,30.745z M5.66,88.155c0.234,0.06,0.402,0.136,0.504,0.229
	c0.103,0.094,0.173,0.228,0.213,0.396c0.041,0.171,0.062,0.446,0.062,0.83v0.382c0,0.455-0.122,0.792-0.364,1.011
	c-0.242,0.223-0.614,0.329-1.117,0.329c-0.471,0-0.869-0.146-1.193-0.45c-0.323-0.3-0.567-0.743-0.731-1.337
	c-0.162-0.592-0.245-1.305-0.245-2.139c0-0.825,0.097-1.525,0.291-2.104c0.194-0.58,0.464-1.018,0.812-1.317
	c0.35-0.298,0.756-0.445,1.221-0.445c0.336,0,0.613,0.046,0.832,0.139c0.219,0.093,0.407,0.242,0.564,0.46
	c0.158,0.212,0.294,0.512,0.409,0.896h0.633v-1.756c-0.448-0.11-0.855-0.188-1.22-0.232c-0.368-0.043-0.748-0.063-1.143-0.063
	c-0.753,0-1.409,0.185-1.966,0.553c-0.556,0.368-0.986,0.895-1.283,1.578c-0.298,0.687-0.446,1.481-0.446,2.39
	c0,1.455,0.272,2.554,0.816,3.288c0.545,0.738,1.356,1.107,2.432,1.107c0.393,0,0.739-0.04,1.04-0.122
	c0.303-0.08,0.593-0.206,0.869-0.376l0.466,0.498l0.498-0.134l-0.001-2.22c0-0.261,0.006-0.463,0.021-0.607
	c0.016-0.141,0.042-0.261,0.083-0.358c0.04-0.1,0.099-0.181,0.176-0.246c0.076-0.066,0.192-0.124,0.345-0.177v-0.312H5.66V88.155z
	 M14.688,90.214c-0.048,0.154-0.11,0.3-0.182,0.438c-0.073,0.143-0.155,0.255-0.249,0.343c-0.094,0.087-0.205,0.152-0.334,0.188
	c-0.131,0.034-0.3,0.054-0.508,0.054H11.43v-3.682h1.366c0.2,0,0.349,0.024,0.45,0.079c0.1,0.054,0.186,0.149,0.258,0.278
	c0.071,0.13,0.137,0.321,0.197,0.577h0.601v-2.451h-0.601c-0.063,0.275-0.131,0.476-0.199,0.603
	c-0.073,0.126-0.16,0.217-0.267,0.271c-0.106,0.054-0.252,0.08-0.439,0.08H11.43v-3.345h2.017c0.166,0,0.309,0.011,0.429,0.034
	c0.119,0.024,0.222,0.068,0.308,0.131c0.088,0.065,0.168,0.15,0.24,0.255c0.072,0.105,0.142,0.239,0.211,0.396
	c0.067,0.157,0.133,0.339,0.198,0.548h0.625v-1.928H9.49v0.312c0.197,0.055,0.334,0.104,0.416,0.146
	c0.08,0.045,0.145,0.107,0.194,0.183c0.049,0.073,0.084,0.176,0.105,0.312c0.021,0.134,0.032,0.348,0.032,0.644v5.521
	c0,0.313-0.014,0.549-0.041,0.7c-0.029,0.155-0.087,0.27-0.177,0.354c-0.089,0.083-0.265,0.16-0.529,0.229v0.312h5.91l0.121-2.237
	h-0.632C14.805,89.844,14.738,90.065,14.688,90.214z M23.501,90.937c-0.12-0.161-0.264-0.394-0.429-0.701l-0.574-1.047
	c-0.225-0.418-0.43-0.729-0.616-0.923c-0.184-0.198-0.407-0.352-0.667-0.455v-0.055c0.642-0.229,1.124-0.551,1.446-0.958
	c0.32-0.406,0.481-0.9,0.481-1.484c0-0.765-0.247-1.327-0.74-1.688c-0.493-0.358-1.238-0.542-2.234-0.542h-3.159v0.312
	c0.196,0.052,0.334,0.103,0.415,0.147s0.146,0.107,0.194,0.183c0.049,0.073,0.084,0.176,0.105,0.312
	c0.021,0.134,0.032,0.349,0.032,0.643v5.521c0,0.313-0.014,0.549-0.041,0.7c-0.029,0.155-0.086,0.27-0.176,0.354
	c-0.09,0.083-0.266,0.16-0.53,0.229v0.312h2.694v-0.312c-0.196-0.055-0.334-0.105-0.416-0.15c-0.08-0.046-0.144-0.103-0.19-0.173
	c-0.046-0.071-0.083-0.173-0.105-0.312c-0.023-0.141-0.036-0.359-0.036-0.666v-2.165h0.701c0.209,0,0.365,0.011,0.469,0.031
	c0.105,0.026,0.202,0.069,0.294,0.132c0.091,0.057,0.192,0.169,0.299,0.319c0.109,0.153,0.248,0.395,0.419,0.715l0.561,1.064
	c0.142,0.269,0.284,0.532,0.429,0.791c0.145,0.26,0.298,0.502,0.459,0.729h1.769v-0.312c-0.204-0.035-0.368-0.096-0.492-0.18
	C23.74,91.221,23.619,91.099,23.501,90.937z M20.576,87.38c-0.229,0.057-0.529,0.081-0.899,0.081h-0.722v-3.792
	c0.238-0.016,0.55-0.023,0.933-0.022c0.477,0,0.855,0.067,1.137,0.21c0.28,0.138,0.489,0.342,0.628,0.61
	c0.138,0.271,0.207,0.605,0.207,1.011c0,0.385-0.058,0.712-0.175,0.979c-0.117,0.268-0.274,0.476-0.47,0.621
	C21.019,87.229,20.806,87.328,20.576,87.38z M29.623,89.292l-2.241-6.211h-2.277v0.312c0.195,0.052,0.334,0.103,0.414,0.147
	c0.081,0.045,0.146,0.107,0.195,0.183c0.048,0.073,0.084,0.176,0.105,0.312c0.021,0.133,0.031,0.348,0.031,0.642v5.521
	c0,0.313-0.014,0.548-0.041,0.7c-0.028,0.155-0.086,0.27-0.176,0.354c-0.09,0.082-0.266,0.161-0.529,0.229v0.31h2.329v-0.312
	c-0.195-0.047-0.337-0.1-0.424-0.151c-0.088-0.048-0.153-0.116-0.198-0.189c-0.045-0.078-0.076-0.181-0.096-0.312
	c-0.019-0.132-0.029-0.342-0.029-0.625v-2.339c0-0.719-0.008-1.418-0.028-2.103c-0.019-0.679-0.039-1.148-0.06-1.407h0.107
	l2.349,6.426h0.734l2.527-6.323h0.108c-0.025,0.246-0.047,0.695-0.065,1.351c-0.02,0.656-0.029,1.306-0.029,1.95v2.444
	c0,0.343-0.018,0.589-0.052,0.739c-0.035,0.15-0.097,0.263-0.192,0.339c-0.093,0.076-0.261,0.141-0.503,0.203v0.31h2.661v-0.312
	c-0.195-0.047-0.337-0.1-0.424-0.151c-0.088-0.048-0.154-0.116-0.198-0.189c-0.046-0.078-0.076-0.181-0.096-0.312
	c-0.019-0.132-0.029-0.342-0.029-0.625v-5.521c0-0.296,0.012-0.51,0.035-0.65c0.023-0.138,0.06-0.246,0.108-0.315
	c0.05-0.071,0.115-0.128,0.198-0.176c0.083-0.047,0.217-0.094,0.405-0.142v-0.002h0.002v-0.312h-2.158L29.623,89.292z M42.3,90.857
	c-0.08-0.173-0.169-0.427-0.271-0.759l-2.17-7.116h-1.008l-2.662,7.062c-0.166,0.443-0.338,0.785-0.514,1.021
	c-0.178,0.239-0.384,0.376-0.623,0.415v0.312h2.725V91.48c-0.267-0.039-0.466-0.116-0.596-0.234
	c-0.13-0.121-0.195-0.306-0.195-0.562c0-0.127,0.018-0.277,0.052-0.439c0.034-0.161,0.107-0.403,0.217-0.716l0.218-0.625h2.974
	l0.235,0.823c0.064,0.209,0.113,0.394,0.147,0.562c0.034,0.167,0.051,0.325,0.051,0.472c0,0.15-0.025,0.272-0.076,0.364
	c-0.051,0.095-0.129,0.162-0.233,0.214c-0.104,0.053-0.263,0.101-0.475,0.143v0.312h2.941v-0.312
	c-0.191-0.046-0.343-0.12-0.453-0.217C42.474,91.169,42.379,91.033,42.3,90.857z M37.644,88.349l1.455-4.116l1.213,4.116H37.644z
	 M49.051,83.394c0.194,0.052,0.332,0.103,0.411,0.147s0.141,0.106,0.185,0.179c0.045,0.071,0.075,0.174,0.093,0.312
	c0.016,0.136,0.026,0.351,0.026,0.646v1.342c0,0.62,0.007,1.316,0.024,2.088c0.018,0.775,0.037,1.289,0.058,1.549h-0.082
	c-0.11-0.238-0.219-0.454-0.323-0.646c-0.105-0.189-0.234-0.41-0.386-0.669l-3.153-5.261h-1.997v0.312
	c0.195,0.052,0.333,0.103,0.415,0.147c0.081,0.045,0.146,0.107,0.194,0.183c0.048,0.073,0.084,0.176,0.105,0.312
	c0.02,0.134,0.032,0.348,0.032,0.642v5.521c0,0.313-0.015,0.549-0.041,0.7c-0.03,0.155-0.087,0.27-0.177,0.354
	c-0.089,0.082-0.264,0.161-0.529,0.229v0.31h2.329v-0.312c-0.195-0.047-0.337-0.1-0.424-0.151c-0.086-0.048-0.152-0.116-0.198-0.189
	c-0.044-0.078-0.076-0.181-0.096-0.312c-0.018-0.132-0.028-0.342-0.028-0.625v-1.307c0-0.851-0.007-1.706-0.019-2.562
	c-0.013-0.854-0.034-1.449-0.064-1.774h0.108c0.082,0.166,0.168,0.333,0.262,0.504c0.095,0.17,0.251,0.442,0.473,0.812l3.556,5.962
	h0.797v-7.152c0-0.313,0.014-0.533,0.038-0.673c0.026-0.137,0.063-0.239,0.113-0.307c0.047-0.067,0.111-0.123,0.19-0.166
	c0.078-0.042,0.214-0.089,0.405-0.142v-0.312h-2.297V83.394z M60.826,83.394c0.195,0.052,0.332,0.103,0.411,0.147
	c0.079,0.045,0.142,0.106,0.186,0.179c0.045,0.071,0.075,0.174,0.093,0.312c0.016,0.136,0.025,0.351,0.025,0.646v1.342
	c0,0.62,0.008,1.316,0.025,2.088c0.018,0.775,0.037,1.289,0.058,1.549h-0.083c-0.11-0.238-0.218-0.454-0.322-0.646
	c-0.105-0.189-0.235-0.41-0.387-0.669l-3.151-5.261h-1.999v0.312c0.197,0.052,0.334,0.103,0.416,0.147
	c0.081,0.045,0.145,0.107,0.193,0.183c0.049,0.073,0.084,0.176,0.105,0.312c0.021,0.134,0.033,0.348,0.033,0.642v5.521
	c0,0.313-0.015,0.549-0.042,0.7c-0.028,0.155-0.086,0.27-0.176,0.354c-0.089,0.082-0.264,0.161-0.53,0.229v0.31h2.33v-0.312
	c-0.195-0.047-0.337-0.1-0.424-0.151c-0.087-0.048-0.153-0.116-0.198-0.189c-0.044-0.078-0.077-0.181-0.096-0.312
	c-0.018-0.132-0.028-0.342-0.028-0.625v-1.307c0-0.851-0.007-1.706-0.019-2.562c-0.013-0.854-0.034-1.449-0.064-1.774h0.108
	c0.082,0.166,0.168,0.333,0.261,0.504c0.095,0.17,0.252,0.442,0.474,0.812l3.555,5.962h0.798v-7.152
	c0-0.313,0.013-0.533,0.038-0.673c0.026-0.137,0.063-0.239,0.112-0.307c0.048-0.067,0.111-0.123,0.191-0.166
	c0.078-0.042,0.213-0.089,0.405-0.142v-0.312h-2.298V83.394z M69.802,90.214c-0.048,0.154-0.11,0.3-0.182,0.438
	c-0.072,0.143-0.155,0.255-0.248,0.343c-0.095,0.087-0.205,0.152-0.335,0.188c-0.131,0.034-0.3,0.054-0.508,0.054h-1.985v-3.682
	h1.365c0.2,0,0.35,0.024,0.451,0.079c0.099,0.054,0.186,0.149,0.259,0.278c0.07,0.13,0.136,0.321,0.196,0.577h0.601v-2.451h-0.601
	c-0.063,0.275-0.131,0.476-0.2,0.603c-0.072,0.126-0.16,0.217-0.265,0.271c-0.107,0.054-0.253,0.08-0.441,0.08h-1.365v-3.345h2.017
	c0.167,0,0.309,0.011,0.428,0.034c0.12,0.024,0.223,0.068,0.31,0.131c0.087,0.065,0.167,0.15,0.24,0.255
	c0.07,0.105,0.141,0.239,0.21,0.396c0.068,0.157,0.134,0.339,0.197,0.548h0.626v-1.928l-5.967-0.003v0.312
	c0.196,0.052,0.334,0.103,0.415,0.147s0.146,0.107,0.194,0.183c0.049,0.073,0.084,0.176,0.105,0.312
	c0.02,0.134,0.032,0.348,0.032,0.643v5.521c0,0.312-0.015,0.549-0.041,0.7c-0.029,0.155-0.086,0.27-0.177,0.354
	c-0.089,0.083-0.265,0.16-0.529,0.229v0.312h5.91l0.121-2.236h-0.632C69.919,89.844,69.852,90.065,69.802,90.214z M71.771,85.312
	h0.632c0.081-0.344,0.166-0.622,0.259-0.849c0.092-0.224,0.193-0.397,0.303-0.518c0.11-0.121,0.23-0.2,0.361-0.239
	c0.129-0.038,0.294-0.058,0.494-0.058h0.804v6.536c0,0.255-0.011,0.445-0.035,0.58c-0.024,0.129-0.055,0.234-0.096,0.312
	c-0.04,0.077-0.091,0.137-0.153,0.188c-0.06,0.05-0.141,0.091-0.239,0.126c-0.098,0.034-0.211,0.065-0.339,0.097V91.8h2.917v-0.311
	c-0.208-0.046-0.362-0.095-0.459-0.146c-0.097-0.049-0.174-0.114-0.233-0.201c-0.057-0.085-0.1-0.205-0.128-0.354
	c-0.026-0.151-0.041-0.349-0.041-0.599v-6.536h0.812c0.233,0,0.409,0.02,0.525,0.068c0.118,0.048,0.227,0.125,0.329,0.235
	c0.103,0.109,0.199,0.271,0.291,0.483c0.09,0.213,0.183,0.502,0.277,0.868h0.626v-2.225h-6.906L71.771,85.312z M88.635,83.393
	c0.252,0.043,0.432,0.122,0.539,0.232c0.109,0.118,0.163,0.306,0.163,0.562c0,0.252-0.09,0.673-0.273,1.268l-1.507,4.869
	l-1.665-7.245h-1.074l-2.055,7.236l-1.281-5.041c-0.068-0.257-0.122-0.491-0.161-0.695c-0.038-0.205-0.057-0.381-0.057-0.529
	c0-0.184,0.051-0.324,0.155-0.429c0.105-0.101,0.289-0.177,0.552-0.229v-0.312h-2.73v0.312c0.139,0.039,0.247,0.084,0.322,0.139
	c0.074,0.049,0.144,0.131,0.206,0.235c0.065,0.104,0.128,0.249,0.192,0.432s0.134,0.42,0.211,0.708l1.856,6.933h1.035l2.042-7.131
	l1.762,7.134h0.913l2.324-6.89c0.11-0.325,0.206-0.583,0.29-0.771c0.082-0.196,0.159-0.334,0.229-0.429
	c0.071-0.091,0.144-0.164,0.221-0.216c0.078-0.055,0.179-0.103,0.307-0.146V83.08h-2.516V83.393z M97.109,83.486
	c-0.516-0.333-1.154-0.501-1.911-0.501c-0.711,0-1.336,0.178-1.874,0.532c-0.538,0.356-0.952,0.874-1.241,1.555
	c-0.29,0.678-0.435,1.495-0.435,2.443c0,0.769,0.083,1.43,0.246,1.983c0.164,0.549,0.396,1.007,0.695,1.361
	c0.301,0.354,0.66,0.617,1.08,0.785c0.418,0.168,0.884,0.252,1.393,0.252c0.724,0,1.357-0.169,1.9-0.506
	c0.543-0.345,0.963-0.853,1.261-1.538c0.299-0.686,0.447-1.525,0.447-2.521c0-0.932-0.132-1.723-0.393-2.371
	C98.015,84.311,97.626,83.82,97.109,83.486z M97.112,89.593c-0.163,0.57-0.405,1.005-0.728,1.3c-0.324,0.295-0.718,0.44-1.181,0.44
	c-0.732,0-1.288-0.338-1.67-1.021c-0.381-0.679-0.57-1.67-0.57-2.979c0-0.574,0.042-1.098,0.125-1.562
	c0.083-0.468,0.214-0.866,0.395-1.195c0.182-0.33,0.409-0.584,0.685-0.764c0.273-0.183,0.601-0.271,0.984-0.271
	c0.435,0,0.816,0.143,1.143,0.415c0.328,0.276,0.586,0.721,0.775,1.331c0.189,0.614,0.284,1.38,0.284,2.308
	C97.354,88.358,97.274,89.024,97.112,89.593z M106.693,90.937c-0.12-0.161-0.263-0.394-0.429-0.701l-0.573-1.047
	c-0.226-0.418-0.43-0.729-0.617-0.923c-0.184-0.198-0.407-0.352-0.666-0.455v-0.055c0.641-0.229,1.123-0.551,1.445-0.958
	c0.321-0.406,0.482-0.9,0.482-1.484c0-0.765-0.248-1.327-0.741-1.688c-0.493-0.358-1.238-0.542-2.233-0.542h-3.16v0.312
	c0.196,0.052,0.334,0.103,0.416,0.147c0.08,0.045,0.145,0.107,0.193,0.183c0.049,0.073,0.084,0.176,0.105,0.312
	c0.021,0.134,0.032,0.349,0.032,0.643v5.521c0,0.313-0.014,0.549-0.041,0.7c-0.029,0.155-0.086,0.27-0.176,0.354
	c-0.089,0.083-0.266,0.16-0.53,0.229v0.312h2.693v-0.312c-0.196-0.055-0.334-0.105-0.416-0.15c-0.079-0.046-0.144-0.103-0.19-0.173
	c-0.047-0.071-0.083-0.173-0.105-0.312c-0.022-0.141-0.035-0.359-0.035-0.666v-2.165h0.7c0.21,0,0.366,0.011,0.47,0.031
	c0.105,0.026,0.202,0.069,0.294,0.132c0.092,0.057,0.192,0.169,0.3,0.319c0.108,0.153,0.247,0.395,0.418,0.715l0.562,1.064
	c0.141,0.269,0.283,0.532,0.428,0.791c0.145,0.26,0.298,0.502,0.46,0.729h1.768v-0.312c-0.204-0.035-0.368-0.096-0.491-0.18
	C106.932,91.221,106.812,91.099,106.693,90.937z M103.767,87.38c-0.229,0.057-0.529,0.081-0.899,0.081h-0.721v-3.792
	c0.239-0.016,0.549-0.023,0.932-0.022c0.478,0,0.855,0.067,1.137,0.21c0.28,0.138,0.489,0.342,0.628,0.61
	c0.139,0.271,0.208,0.605,0.208,1.011c0,0.385-0.059,0.712-0.176,0.979c-0.117,0.268-0.274,0.476-0.469,0.621
	C104.21,87.229,103.997,87.328,103.767,87.38z M114.964,91.045c-0.141-0.146-0.333-0.395-0.581-0.751l-2.324-3.375l2.146-2.415
	c0.268-0.297,0.471-0.513,0.609-0.643c0.138-0.129,0.273-0.234,0.405-0.309c0.132-0.071,0.266-0.127,0.401-0.153v-0.312h-2.781
	v0.312c0.17,0.019,0.303,0.065,0.401,0.146c0.097,0.078,0.147,0.202,0.147,0.372c0,0.115-0.026,0.234-0.077,0.356
	c-0.064,0.167-0.189,0.371-0.376,0.61c-0.149,0.203-0.428,0.534-0.837,0.989c-0.34,0.384-0.594,0.644-0.76,0.786
	c-0.166,0.139-0.315,0.235-0.449,0.285c-0.134,0.052-0.282,0.077-0.444,0.077h-0.19l0.007-2.346c0-0.295,0.013-0.509,0.036-0.649
	c0.022-0.138,0.059-0.246,0.108-0.315c0.049-0.071,0.116-0.128,0.198-0.176c0.084-0.047,0.217-0.094,0.404-0.142v-0.312h-2.686
	v0.312c0.194,0.052,0.334,0.103,0.414,0.147c0.081,0.045,0.145,0.107,0.194,0.183c0.048,0.073,0.085,0.176,0.106,0.312
	c0.02,0.134,0.03,0.348,0.03,0.642v5.521c0,0.313-0.013,0.549-0.041,0.7c-0.029,0.155-0.086,0.27-0.175,0.354
	c-0.09,0.082-0.266,0.161-0.529,0.229v0.31h2.686v-0.312c-0.195-0.047-0.336-0.1-0.424-0.151c-0.087-0.048-0.152-0.116-0.198-0.189
	c-0.044-0.078-0.076-0.181-0.096-0.312c-0.018-0.132-0.029-0.342-0.029-0.625v-2.67h0.34c0.157,0,0.282,0.021,0.376,0.061
	c0.095,0.042,0.181,0.103,0.263,0.188c0.08,0.083,0.208,0.256,0.382,0.521l1.486,2.219c0.107,0.153,0.185,0.284,0.233,0.393
	c0.05,0.107,0.074,0.199,0.074,0.276c0,0.094-0.037,0.165-0.109,0.21c-0.073,0.048-0.187,0.077-0.345,0.09v0.312h2.815v-0.312
	c-0.144-0.023-0.281-0.068-0.409-0.13C115.239,91.291,115.105,91.189,114.964,91.045z M119.427,83.392
	c0.196,0.052,0.333,0.103,0.415,0.147c0.08,0.045,0.145,0.107,0.193,0.183c0.049,0.073,0.084,0.176,0.105,0.312
	c0.021,0.134,0.033,0.348,0.033,0.643v5.521c0,0.313-0.015,0.549-0.042,0.7c-0.029,0.155-0.086,0.27-0.176,0.354
	c-0.09,0.083-0.265,0.16-0.529,0.229v0.312h2.833v-0.312c-0.17-0.041-0.313-0.082-0.428-0.126c-0.114-0.045-0.206-0.11-0.273-0.2
	c-0.068-0.091-0.117-0.21-0.147-0.363c-0.03-0.15-0.044-0.354-0.044-0.609v-2.503h1.314c0.195,0,0.343,0.03,0.442,0.093
	c0.102,0.061,0.188,0.166,0.259,0.312c0.072,0.146,0.141,0.365,0.205,0.652h0.6v-2.69h-0.6c-0.064,0.303-0.132,0.523-0.201,0.669
	c-0.071,0.146-0.159,0.25-0.265,0.312c-0.107,0.062-0.253,0.094-0.44,0.094h-1.314v-3.473h1.869c0.209,0,0.377,0.02,0.505,0.058
	c0.127,0.039,0.239,0.103,0.335,0.198c0.094,0.094,0.186,0.228,0.273,0.407c0.087,0.179,0.178,0.413,0.272,0.699h0.625v-1.928
	l-5.819-0.003V83.392z M131.792,83.486c-0.517-0.333-1.154-0.501-1.911-0.501c-0.711,0-1.336,0.178-1.874,0.532
	c-0.539,0.356-0.952,0.874-1.241,1.555c-0.29,0.678-0.435,1.495-0.435,2.443c0,0.769,0.082,1.431,0.246,1.983
	c0.164,0.549,0.396,1.007,0.695,1.361c0.3,0.354,0.66,0.617,1.08,0.785c0.418,0.168,0.884,0.252,1.394,0.252
	c0.724,0,1.356-0.169,1.9-0.506c0.542-0.345,0.962-0.853,1.26-1.538c0.298-0.686,0.447-1.525,0.447-2.521
	c0-0.932-0.132-1.723-0.392-2.371C132.697,84.311,132.309,83.82,131.792,83.486z M131.795,89.593c-0.163,0.57-0.405,1.005-0.729,1.3
	c-0.323,0.295-0.717,0.44-1.181,0.44c-0.731,0-1.287-0.338-1.669-1.021c-0.381-0.679-0.57-1.67-0.57-2.979
	c0-0.574,0.042-1.095,0.124-1.562c0.084-0.468,0.215-0.866,0.396-1.195c0.181-0.33,0.409-0.584,0.684-0.764
	c0.273-0.183,0.602-0.271,0.985-0.271c0.435,0,0.816,0.143,1.143,0.415c0.328,0.276,0.586,0.721,0.775,1.331
	c0.189,0.614,0.285,1.38,0.285,2.308C132.038,88.358,131.957,89.024,131.795,89.593z M141.375,90.937
	c-0.119-0.161-0.263-0.394-0.428-0.701l-0.575-1.047c-0.223-0.418-0.429-0.729-0.614-0.923c-0.185-0.198-0.408-0.352-0.668-0.455
	v-0.055c0.643-0.229,1.126-0.551,1.445-0.958c0.321-0.406,0.483-0.9,0.483-1.484c0-0.765-0.248-1.327-0.74-1.688
	c-0.494-0.358-1.24-0.542-2.234-0.542h-3.159v0.312c0.195,0.052,0.333,0.103,0.415,0.147c0.08,0.045,0.145,0.107,0.193,0.183
	c0.049,0.073,0.084,0.176,0.105,0.312c0.021,0.134,0.033,0.349,0.033,0.643v5.521c0,0.313-0.015,0.549-0.042,0.7
	c-0.029,0.155-0.086,0.27-0.177,0.354c-0.089,0.083-0.264,0.16-0.528,0.229v0.312h2.693v-0.312c-0.196-0.055-0.334-0.105-0.415-0.15
	c-0.081-0.046-0.144-0.103-0.191-0.173c-0.047-0.071-0.082-0.173-0.105-0.312c-0.023-0.141-0.035-0.359-0.035-0.666v-2.165h0.699
	c0.209,0,0.366,0.011,0.47,0.031c0.106,0.026,0.203,0.069,0.294,0.132c0.091,0.057,0.191,0.169,0.3,0.319
	c0.108,0.153,0.247,0.395,0.418,0.715l0.562,1.064c0.142,0.269,0.282,0.532,0.428,0.791c0.146,0.26,0.299,0.502,0.459,0.729h1.769
	v-0.312c-0.204-0.035-0.368-0.096-0.492-0.18C141.614,91.221,141.494,91.099,141.375,90.937z M138.451,87.38
	c-0.228,0.057-0.529,0.081-0.899,0.081h-0.721v-3.792c0.237-0.016,0.549-0.023,0.933-0.022c0.476,0,0.854,0.067,1.136,0.21
	c0.28,0.138,0.489,0.342,0.629,0.61c0.137,0.271,0.206,0.605,0.206,1.011c0,0.385-0.057,0.712-0.176,0.979
	c-0.116,0.268-0.273,0.476-0.469,0.621C138.894,87.229,138.681,87.328,138.451,87.38z M150.561,87.238v-0.057
	c0.361-0.155,0.657-0.319,0.886-0.498c0.231-0.183,0.417-0.407,0.559-0.679c0.144-0.273,0.215-0.594,0.215-0.965
	c0-0.45-0.101-0.812-0.3-1.096c-0.2-0.285-0.506-0.499-0.916-0.646c-0.41-0.144-0.955-0.216-1.631-0.216h-3.492v0.312
	c0.196,0.052,0.335,0.103,0.415,0.147s0.145,0.107,0.195,0.183c0.048,0.073,0.083,0.176,0.104,0.312
	c0.022,0.133,0.032,0.351,0.032,0.644v5.52c0,0.313-0.014,0.549-0.041,0.7c-0.028,0.155-0.086,0.27-0.176,0.354
	c-0.09,0.082-0.265,0.161-0.53,0.229v0.321h3.286c0.661,0,1.223-0.079,1.687-0.243c0.463-0.163,0.823-0.432,1.081-0.795
	c0.258-0.366,0.387-0.841,0.387-1.416c0-0.506-0.149-0.941-0.447-1.303C151.578,87.682,151.138,87.413,150.561,87.238z
	 M147.819,83.686c0.133-0.005,0.33-0.017,0.594-0.024c0.265-0.009,0.477-0.013,0.64-0.013c0.267,0,0.517,0.02,0.747,0.069
	c0.23,0.052,0.428,0.135,0.596,0.245c0.168,0.116,0.299,0.273,0.396,0.464c0.096,0.193,0.144,0.438,0.144,0.73
	c0,0.593-0.171,1.05-0.514,1.362c-0.342,0.313-0.837,0.47-1.484,0.47l-1.119,0.004V83.686z M150.831,90.401
	c-0.14,0.271-0.361,0.478-0.67,0.622c-0.308,0.141-0.741,0.21-1.299,0.21c-0.384,0-0.729-0.018-1.041-0.045V87.55h0.989
	c0.553,0,0.988,0.065,1.302,0.197c0.316,0.132,0.549,0.332,0.7,0.604c0.152,0.267,0.226,0.607,0.226,1.021
	C151.038,89.783,150.97,90.128,150.831,90.401z M153.873,83.393c0.196,0.052,0.334,0.103,0.416,0.147
	c0.08,0.045,0.144,0.107,0.193,0.183c0.049,0.073,0.084,0.176,0.105,0.312c0.021,0.134,0.033,0.348,0.033,0.642v5.521
	c0,0.31-0.015,0.549-0.042,0.7c-0.028,0.155-0.086,0.27-0.176,0.354c-0.089,0.082-0.266,0.161-0.53,0.229v0.31h2.694v-0.312
	c-0.197-0.047-0.338-0.1-0.426-0.151c-0.088-0.048-0.152-0.116-0.196-0.189c-0.046-0.078-0.077-0.181-0.097-0.312
	c-0.017-0.132-0.028-0.342-0.028-0.625h0.002v-5.524c0-0.295,0.013-0.509,0.035-0.649c0.024-0.138,0.059-0.246,0.108-0.315
	c0.048-0.071,0.114-0.128,0.198-0.176c0.082-0.047,0.218-0.094,0.405-0.142v-0.312h-2.694V83.393z M163.558,83.486
	c-0.516-0.333-1.153-0.501-1.91-0.501c-0.711,0-1.335,0.178-1.874,0.532c-0.538,0.356-0.952,0.874-1.241,1.555
	c-0.29,0.678-0.435,1.495-0.435,2.443c0,0.769,0.082,1.43,0.247,1.983c0.163,0.549,0.394,1.007,0.694,1.361
	c0.3,0.354,0.66,0.617,1.079,0.785s0.884,0.252,1.395,0.252c0.723,0,1.356-0.169,1.9-0.506c0.542-0.345,0.963-0.853,1.259-1.538
	c0.299-0.686,0.448-1.525,0.448-2.521c0-0.932-0.132-1.723-0.393-2.371C164.464,84.311,164.077,83.82,163.558,83.486z
	 M163.562,89.593c-0.162,0.57-0.405,1.005-0.729,1.3s-0.717,0.44-1.18,0.44c-0.732,0-1.289-0.338-1.67-1.021
	c-0.381-0.679-0.571-1.67-0.571-2.979c0-0.574,0.043-1.095,0.126-1.562s0.214-0.866,0.396-1.195c0.179-0.33,0.408-0.584,0.682-0.764
	c0.275-0.183,0.603-0.271,0.986-0.271c0.434,0,0.816,0.143,1.143,0.415c0.328,0.276,0.586,0.721,0.775,1.331
	c0.189,0.614,0.284,1.38,0.284,2.308C163.804,88.358,163.723,89.024,163.562,89.593z M166.652,83.393
	c0.197,0.052,0.335,0.103,0.417,0.147c0.08,0.045,0.144,0.107,0.193,0.183c0.049,0.073,0.084,0.176,0.104,0.312
	c0.022,0.134,0.034,0.348,0.034,0.642v5.521c0,0.31-0.015,0.549-0.042,0.7c-0.029,0.155-0.086,0.27-0.177,0.354
	c-0.089,0.082-0.265,0.161-0.53,0.229v0.31h2.695v-0.312c-0.197-0.047-0.338-0.1-0.426-0.151c-0.087-0.048-0.152-0.116-0.197-0.189
	c-0.045-0.078-0.076-0.181-0.097-0.312c-0.017-0.132-0.027-0.342-0.027-0.625h0.002v-5.524c0-0.295,0.012-0.509,0.035-0.649
	c0.023-0.138,0.059-0.246,0.108-0.315c0.049-0.071,0.114-0.128,0.198-0.176c0.082-0.047,0.217-0.094,0.405-0.142v-0.312h-2.695
	V83.393z M176.009,83.394c0.195,0.052,0.333,0.103,0.411,0.147c0.081,0.045,0.141,0.106,0.186,0.179
	c0.045,0.071,0.076,0.174,0.093,0.312c0.017,0.136,0.026,0.351,0.026,0.646v1.342c0,0.62,0.006,1.316,0.023,2.088
	c0.019,0.775,0.038,1.289,0.059,1.549h-0.082c-0.111-0.238-0.219-0.454-0.324-0.646c-0.104-0.189-0.232-0.41-0.386-0.669
	l-3.151-5.261h-1.997v0.312c0.195,0.052,0.334,0.103,0.415,0.147c0.08,0.045,0.145,0.107,0.193,0.183
	c0.048,0.073,0.085,0.176,0.106,0.312c0.02,0.134,0.032,0.348,0.032,0.642v5.521c0,0.313-0.015,0.549-0.042,0.7
	c-0.028,0.155-0.086,0.27-0.176,0.354c-0.09,0.082-0.265,0.161-0.529,0.229v0.31h2.329v-0.312c-0.196-0.047-0.337-0.1-0.425-0.151
	c-0.086-0.048-0.152-0.116-0.197-0.189c-0.045-0.078-0.076-0.181-0.096-0.312c-0.019-0.132-0.029-0.342-0.029-0.625v-1.307
	c0-0.851-0.006-1.706-0.018-2.562c-0.013-0.854-0.036-1.449-0.064-1.774h0.108c0.081,0.166,0.169,0.333,0.262,0.504
	c0.093,0.17,0.251,0.442,0.473,0.812l3.555,5.962h0.799v-7.152c0-0.313,0.012-0.533,0.037-0.673
	c0.026-0.137,0.062-0.239,0.113-0.307c0.046-0.067,0.113-0.123,0.188-0.166c0.08-0.042,0.217-0.089,0.408-0.142v-0.312h-2.3V83.394z
	 M179.791,83.392c0.195,0.052,0.334,0.103,0.416,0.147c0.08,0.045,0.143,0.107,0.193,0.183c0.045,0.073,0.082,0.176,0.104,0.312
	c0.018,0.134,0.031,0.348,0.031,0.643v5.521c0,0.313-0.016,0.549-0.041,0.7c-0.03,0.155-0.086,0.27-0.178,0.354
	c-0.09,0.083-0.262,0.16-0.529,0.229v0.312h2.836v-0.312c-0.17-0.041-0.314-0.082-0.432-0.126c-0.111-0.045-0.205-0.11-0.271-0.2
	c-0.068-0.091-0.119-0.21-0.146-0.363c-0.026-0.15-0.045-0.354-0.045-0.609v-2.503h1.314c0.195,0,0.339,0.03,0.441,0.093
	c0.1,0.061,0.188,0.166,0.26,0.312c0.07,0.146,0.141,0.365,0.203,0.652h0.602v-2.69h-0.602c-0.062,0.303-0.131,0.523-0.199,0.669
	c-0.075,0.146-0.162,0.25-0.266,0.312c-0.105,0.062-0.252,0.094-0.439,0.094h-1.314v-3.473h1.869c0.209,0,0.377,0.02,0.504,0.058
	c0.127,0.039,0.238,0.103,0.336,0.198c0.094,0.094,0.186,0.227,0.273,0.407c0.083,0.179,0.178,0.413,0.271,0.699h0.625v-1.928
	l-5.816-0.003V83.392z M192.154,83.486c-0.516-0.333-1.153-0.501-1.911-0.501c-0.711,0-1.334,0.178-1.873,0.532
	c-0.537,0.356-0.953,0.874-1.24,1.555c-0.291,0.678-0.437,1.495-0.437,2.443c0,0.769,0.082,1.43,0.246,1.983
	c0.164,0.549,0.393,1.007,0.693,1.361c0.303,0.354,0.659,0.617,1.078,0.785s0.887,0.252,1.396,0.252
	c0.725,0,1.356-0.169,1.901-0.506c0.541-0.345,0.964-0.853,1.263-1.538c0.297-0.686,0.444-1.525,0.444-2.521
	c0-0.932-0.131-1.723-0.393-2.371C193.059,84.311,192.673,83.82,192.154,83.486z M192.159,89.593c-0.164,0.57-0.406,1.005-0.729,1.3
	c-0.326,0.295-0.718,0.44-1.181,0.44c-0.731,0-1.289-0.338-1.67-1.021c-0.381-0.679-0.572-1.67-0.572-2.979
	c0-0.574,0.042-1.098,0.126-1.562c0.084-0.468,0.215-0.866,0.396-1.195c0.183-0.33,0.41-0.584,0.685-0.764
	c0.272-0.183,0.601-0.271,0.986-0.271c0.434,0,0.817,0.143,1.143,0.415c0.328,0.276,0.587,0.721,0.775,1.331
	c0.187,0.614,0.282,1.38,0.282,2.308C192.4,88.358,192.318,89.024,192.159,89.593z M201.738,90.937
	c-0.119-0.161-0.264-0.394-0.428-0.701l-0.576-1.047c-0.225-0.418-0.428-0.729-0.615-0.923c-0.184-0.198-0.408-0.352-0.666-0.455
	v-0.055c0.639-0.229,1.123-0.551,1.443-0.958c0.319-0.406,0.479-0.9,0.479-1.484c0-0.765-0.246-1.327-0.737-1.688
	c-0.492-0.358-1.238-0.542-2.234-0.542h-3.158v0.312c0.195,0.052,0.334,0.103,0.416,0.147c0.08,0.045,0.145,0.107,0.193,0.183
	c0.049,0.073,0.084,0.176,0.104,0.312c0.021,0.134,0.033,0.349,0.033,0.643v5.521c0,0.313-0.014,0.549-0.041,0.7
	c-0.03,0.155-0.088,0.27-0.178,0.354c-0.088,0.083-0.264,0.16-0.527,0.229v0.312h2.691v-0.312c-0.195-0.055-0.334-0.105-0.414-0.15
	c-0.08-0.046-0.143-0.103-0.191-0.173c-0.047-0.071-0.083-0.173-0.104-0.312c-0.023-0.141-0.037-0.359-0.037-0.666v-2.165h0.695
	c0.209,0,0.366,0.011,0.471,0.031c0.104,0.026,0.201,0.069,0.293,0.132c0.093,0.057,0.193,0.169,0.302,0.319
	c0.106,0.153,0.248,0.395,0.416,0.715l0.562,1.064c0.144,0.269,0.284,0.532,0.43,0.791c0.147,0.26,0.3,0.502,0.459,0.729h1.771
	v-0.312c-0.202-0.035-0.364-0.096-0.487-0.18C201.977,91.221,201.855,91.099,201.738,90.937z M198.812,87.38
	c-0.229,0.057-0.527,0.081-0.898,0.081h-0.723v-3.792c0.24-0.016,0.551-0.023,0.934-0.022c0.479,0,0.855,0.067,1.137,0.21
	c0.279,0.138,0.49,0.342,0.629,0.61c0.139,0.271,0.207,0.605,0.207,1.011c0,0.385-0.059,0.712-0.176,0.979
	c-0.115,0.268-0.275,0.476-0.469,0.621C199.253,87.229,199.041,87.328,198.812,87.38z M207.867,89.292l-2.24-6.211h-2.279v0.312
	c0.197,0.052,0.336,0.103,0.416,0.147s0.145,0.107,0.193,0.183c0.048,0.073,0.083,0.176,0.104,0.312
	c0.022,0.133,0.032,0.348,0.032,0.642v5.521c0,0.313-0.014,0.548-0.041,0.7c-0.028,0.155-0.086,0.27-0.178,0.354
	c-0.088,0.082-0.263,0.161-0.526,0.229v0.31h2.329v-0.312c-0.196-0.047-0.338-0.1-0.426-0.151c-0.086-0.048-0.151-0.116-0.196-0.189
	c-0.043-0.078-0.076-0.181-0.097-0.312c-0.019-0.132-0.028-0.342-0.028-0.625v-2.339c0-0.719-0.008-1.418-0.029-2.103
	c-0.017-0.679-0.039-1.148-0.06-1.407h0.106l2.351,6.426h0.733l2.527-6.323h0.105c-0.023,0.246-0.044,0.695-0.064,1.351
	c-0.019,0.656-0.029,1.306-0.029,1.95v2.444c0,0.343-0.02,0.588-0.051,0.739c-0.033,0.15-0.097,0.263-0.19,0.339
	c-0.095,0.076-0.263,0.141-0.505,0.203v0.31h2.66v-0.312c-0.195-0.047-0.336-0.1-0.424-0.151c-0.088-0.048-0.152-0.116-0.197-0.189
	c-0.045-0.078-0.075-0.181-0.096-0.312c-0.019-0.132-0.029-0.342-0.029-0.625v-5.521c0-0.296,0.014-0.51,0.035-0.65
	c0.021-0.138,0.057-0.246,0.105-0.315c0.053-0.071,0.115-0.128,0.199-0.176c0.082-0.047,0.214-0.094,0.4-0.142v-0.002h0.008v-0.312
	h-2.154L207.867,89.292z M220.534,90.857c-0.08-0.173-0.167-0.427-0.271-0.759l-2.173-7.116h-1.01l-2.66,7.062
	c-0.166,0.443-0.336,0.785-0.514,1.021c-0.179,0.239-0.386,0.376-0.623,0.415v0.312h2.728V91.48
	c-0.271-0.039-0.468-0.116-0.599-0.234c-0.129-0.121-0.192-0.306-0.192-0.562c0-0.127,0.02-0.277,0.049-0.439
	c0.037-0.161,0.109-0.403,0.221-0.716l0.217-0.625h2.977l0.234,0.823c0.064,0.209,0.114,0.394,0.146,0.562
	c0.033,0.167,0.054,0.325,0.054,0.472c0,0.15-0.028,0.272-0.078,0.364c-0.048,0.095-0.126,0.162-0.231,0.214
	c-0.104,0.053-0.265,0.101-0.476,0.143v0.312h2.935v-0.312c-0.187-0.046-0.34-0.119-0.451-0.217
	C220.708,91.169,220.611,91.033,220.534,90.857z M215.882,88.349l1.455-4.116l1.211,4.116H215.882z M221.053,83.086h-0.003v2.227
	h0.632c0.082-0.344,0.168-0.622,0.26-0.849c0.094-0.224,0.197-0.397,0.307-0.518c0.107-0.121,0.227-0.2,0.357-0.239
	c0.129-0.038,0.295-0.058,0.494-0.058h0.803v6.536c0,0.255-0.01,0.445-0.031,0.58c-0.028,0.129-0.059,0.234-0.1,0.312
	c-0.039,0.077-0.09,0.137-0.15,0.188c-0.061,0.05-0.141,0.091-0.238,0.126c-0.1,0.034-0.211,0.065-0.34,0.097V91.8h2.918v-0.311
	c-0.209-0.046-0.361-0.095-0.459-0.146c-0.098-0.049-0.173-0.114-0.232-0.201c-0.059-0.085-0.104-0.205-0.127-0.354
	c-0.028-0.151-0.043-0.349-0.043-0.599v-6.536h0.812c0.23,0,0.406,0.02,0.523,0.068c0.117,0.048,0.225,0.125,0.328,0.235
	c0.104,0.109,0.198,0.271,0.291,0.483c0.09,0.213,0.182,0.502,0.276,0.868h0.625v-2.225h-6.904L221.053,83.086z M229.156,83.393
	c0.195,0.052,0.334,0.103,0.416,0.147c0.08,0.045,0.143,0.107,0.193,0.183c0.043,0.073,0.082,0.176,0.104,0.312
	c0.018,0.134,0.029,0.348,0.029,0.642v5.521c0,0.31-0.015,0.549-0.041,0.7c-0.028,0.155-0.088,0.27-0.176,0.354
	c-0.091,0.082-0.264,0.161-0.531,0.229v0.31h2.695v-0.312c-0.197-0.047-0.339-0.1-0.427-0.151c-0.088-0.048-0.151-0.116-0.196-0.189
	c-0.046-0.078-0.076-0.181-0.097-0.312c-0.019-0.132-0.028-0.342-0.028-0.625h0.008v-5.524c0-0.295,0.014-0.509,0.035-0.649
	c0.022-0.138,0.057-0.246,0.106-0.315c0.049-0.071,0.114-0.128,0.198-0.176c0.082-0.047,0.218-0.094,0.406-0.142v-0.312h-2.695
	V83.393z M237.074,82.972c-0.775,0-1.439,0.188-1.998,0.562c-0.559,0.375-0.983,0.902-1.268,1.59
	c-0.287,0.688-0.433,1.484-0.433,2.396c0,1.45,0.272,2.542,0.828,3.271c0.553,0.733,1.371,1.1,2.448,1.1
	c0.505,0,0.966-0.025,1.386-0.079c0.419-0.052,0.83-0.135,1.229-0.239v-1.825h-0.635c-0.137,0.421-0.281,0.741-0.43,0.957
	c-0.155,0.218-0.342,0.376-0.562,0.479c-0.221,0.097-0.504,0.146-0.854,0.146c-0.461,0-0.85-0.146-1.162-0.45
	c-0.318-0.3-0.553-0.741-0.715-1.334c-0.162-0.59-0.242-1.302-0.242-2.135c0-0.829,0.1-1.537,0.293-2.122
	c0.198-0.583,0.467-1.02,0.811-1.312c0.342-0.292,0.731-0.438,1.17-0.438c0.295,0,0.547,0.047,0.754,0.143
	c0.209,0.094,0.394,0.25,0.55,0.47c0.159,0.22,0.289,0.515,0.392,0.885h0.631v-1.769c-0.422-0.111-0.795-0.187-1.123-0.234
	C237.818,82.993,237.461,82.972,237.074,82.972z M244.789,87.61c-0.301-0.236-0.725-0.489-1.268-0.76
	c-0.453-0.224-0.793-0.424-1.021-0.602c-0.234-0.181-0.402-0.374-0.508-0.581c-0.107-0.209-0.162-0.464-0.162-0.768
	c0-0.284,0.059-0.53,0.188-0.736c0.129-0.207,0.301-0.358,0.521-0.463c0.219-0.099,0.467-0.152,0.744-0.152
	c0.318,0,0.576,0.04,0.777,0.123c0.198,0.084,0.375,0.229,0.521,0.438c0.147,0.207,0.269,0.499,0.371,0.874h0.631V83.26
	c-0.465-0.12-0.847-0.196-1.158-0.229c-0.304-0.035-0.625-0.053-0.944-0.053c-0.557,0-1.051,0.097-1.484,0.287
	c-0.43,0.188-0.758,0.459-0.98,0.812c-0.225,0.349-0.336,0.76-0.336,1.239c0,0.328,0.07,0.631,0.215,0.905
	c0.141,0.278,0.355,0.535,0.646,0.771c0.289,0.238,0.684,0.48,1.182,0.725c0.512,0.258,0.896,0.481,1.148,0.674
	c0.25,0.188,0.432,0.392,0.541,0.609c0.111,0.219,0.168,0.489,0.168,0.807c0,0.498-0.131,0.876-0.4,1.137
	c-0.265,0.261-0.646,0.39-1.146,0.39c-0.364,0-0.657-0.05-0.886-0.153c-0.23-0.103-0.418-0.264-0.562-0.48
	c-0.146-0.218-0.259-0.512-0.345-0.886v0.002h-0.64v1.75c0.873,0.226,1.644,0.338,2.312,0.338c0.41,0,0.793-0.044,1.139-0.13
	c0.349-0.088,0.647-0.231,0.896-0.422c0.25-0.193,0.443-0.445,0.584-0.753c0.143-0.312,0.212-0.691,0.212-1.137
	c0-0.4-0.083-0.75-0.253-1.049C245.322,88.11,245.09,87.842,244.789,87.61z M241.24,89.81c0,0.001,0.001,0.002,0.001,0.003
	L241.24,89.81L241.24,89.81z M250.027,83.393c0.197,0.052,0.334,0.103,0.416,0.147c0.08,0.045,0.141,0.107,0.189,0.183
	c0.047,0.073,0.083,0.176,0.104,0.312c0.021,0.134,0.033,0.348,0.033,0.642v5.521c0,0.31-0.015,0.549-0.043,0.7
	c-0.028,0.155-0.086,0.27-0.177,0.354c-0.088,0.082-0.261,0.161-0.528,0.229v0.31h2.692v-0.312c-0.194-0.047-0.338-0.1-0.424-0.151
	c-0.088-0.048-0.153-0.116-0.197-0.189c-0.045-0.078-0.077-0.181-0.098-0.312c-0.017-0.132-0.027-0.342-0.027-0.625h0.009v-5.524
	c0-0.295,0.012-0.509,0.035-0.649c0.021-0.138,0.057-0.246,0.106-0.315c0.049-0.071,0.114-0.128,0.198-0.176
	c0.082-0.047,0.215-0.094,0.402-0.142v-0.312h-2.691V83.393z M259.378,83.394c0.195,0.052,0.331,0.103,0.412,0.147
	s0.142,0.106,0.185,0.179c0.045,0.071,0.075,0.174,0.094,0.312c0.017,0.136,0.024,0.351,0.024,0.646v1.342
	c0,0.62,0.007,1.316,0.025,2.088c0.019,0.775,0.036,1.289,0.057,1.549h-0.082c-0.11-0.238-0.217-0.454-0.321-0.646
	c-0.106-0.189-0.233-0.41-0.388-0.669l-3.147-5.261h-1.998v0.312c0.195,0.052,0.336,0.103,0.414,0.147
	c0.082,0.045,0.144,0.107,0.195,0.183c0.045,0.073,0.082,0.176,0.104,0.312c0.02,0.134,0.029,0.348,0.029,0.642v5.521
	c0,0.313-0.014,0.549-0.041,0.7c-0.028,0.155-0.086,0.27-0.176,0.354c-0.088,0.082-0.264,0.161-0.529,0.229v0.31h2.328v-0.312
	c-0.194-0.047-0.334-0.1-0.424-0.151c-0.086-0.048-0.151-0.116-0.197-0.189c-0.045-0.078-0.075-0.181-0.096-0.312
	c-0.018-0.132-0.029-0.342-0.029-0.625v-1.307c0-0.851-0.008-1.706-0.019-2.562c-0.009-0.854-0.034-1.449-0.063-1.774h0.106
	c0.082,0.166,0.171,0.333,0.263,0.504c0.096,0.17,0.252,0.442,0.477,0.812l3.555,5.962h0.801v-7.152
	c0-0.313,0.012-0.533,0.037-0.673c0.023-0.137,0.063-0.239,0.109-0.307s0.109-0.123,0.189-0.166
	c0.078-0.042,0.213-0.089,0.406-0.142v-0.312h-2.3V83.394z M263.162,83.392c0.195,0.052,0.335,0.103,0.414,0.147
	c0.08,0.045,0.146,0.107,0.195,0.183c0.047,0.073,0.082,0.176,0.104,0.312c0.02,0.134,0.032,0.348,0.032,0.643v5.521
	c0,0.313-0.015,0.549-0.044,0.7c-0.028,0.155-0.084,0.27-0.176,0.354c-0.088,0.083-0.264,0.16-0.527,0.229v0.312h2.834v-0.312
	c-0.171-0.041-0.314-0.082-0.428-0.126c-0.113-0.045-0.207-0.11-0.273-0.2c-0.068-0.091-0.119-0.21-0.146-0.363
	c-0.028-0.15-0.047-0.354-0.047-0.609v-2.503h1.318c0.191,0,0.337,0.03,0.438,0.093c0.104,0.061,0.191,0.166,0.262,0.312
	s0.14,0.365,0.201,0.652h0.604v-2.69h-0.604c-0.059,0.303-0.131,0.523-0.197,0.669c-0.073,0.146-0.161,0.25-0.268,0.312
	c-0.105,0.062-0.252,0.094-0.438,0.094H265.1v-3.473h1.871c0.211,0,0.377,0.02,0.506,0.058c0.127,0.039,0.236,0.103,0.336,0.198
	c0.092,0.094,0.185,0.228,0.271,0.407c0.086,0.179,0.176,0.413,0.271,0.699h0.625v-1.928l-5.816-0.003V83.392z M276.662,90.937
	c-0.119-0.161-0.266-0.394-0.43-0.701l-0.572-1.047c-0.223-0.418-0.428-0.729-0.615-0.923c-0.189-0.198-0.404-0.352-0.668-0.455
	v-0.055c0.639-0.229,1.125-0.551,1.443-0.958c0.32-0.406,0.48-0.9,0.48-1.484c0-0.765-0.246-1.327-0.738-1.688
	c-0.494-0.358-1.236-0.542-2.232-0.542h-3.16v0.312c0.197,0.052,0.336,0.103,0.416,0.147s0.143,0.107,0.193,0.183
	c0.047,0.073,0.084,0.176,0.104,0.312c0.019,0.134,0.03,0.349,0.03,0.643v5.521c0,0.313-0.016,0.549-0.039,0.7
	c-0.029,0.155-0.088,0.27-0.176,0.354c-0.094,0.083-0.266,0.16-0.533,0.229v0.312h2.693v-0.312c-0.193-0.055-0.334-0.105-0.412-0.15
	c-0.082-0.046-0.143-0.103-0.191-0.173c-0.045-0.071-0.083-0.173-0.104-0.312c-0.023-0.141-0.035-0.359-0.035-0.666v-2.165h0.695
	c0.207,0,0.365,0.011,0.469,0.031c0.107,0.026,0.203,0.069,0.296,0.132c0.09,0.057,0.192,0.169,0.299,0.319
	c0.108,0.153,0.248,0.395,0.419,0.715l0.562,1.064c0.142,0.269,0.283,0.532,0.429,0.791c0.146,0.26,0.299,0.502,0.461,0.729h1.769
	v-0.312c-0.205-0.035-0.369-0.096-0.492-0.18C276.9,91.221,276.779,91.099,276.662,90.937z M273.738,87.38
	c-0.229,0.057-0.529,0.081-0.898,0.081h-0.723v-3.792c0.238-0.016,0.549-0.023,0.934-0.022c0.477,0,0.857,0.067,1.135,0.21
	c0.281,0.138,0.49,0.342,0.629,0.61c0.144,0.271,0.209,0.605,0.209,1.011c0,0.385-0.059,0.712-0.176,0.979
	c-0.117,0.268-0.275,0.476-0.471,0.621C274.182,87.229,273.967,87.328,273.738,87.38z M284.803,90.857
	c-0.08-0.173-0.169-0.427-0.271-0.759l-2.171-7.116h-1.01l-2.662,7.062c-0.166,0.443-0.336,0.785-0.516,1.021
	c-0.178,0.239-0.383,0.376-0.619,0.415v0.312h2.725V91.48c-0.268-0.039-0.467-0.116-0.596-0.234
	c-0.133-0.121-0.194-0.306-0.194-0.562c0-0.127,0.018-0.277,0.051-0.439c0.033-0.161,0.108-0.403,0.219-0.716l0.216-0.625h2.979
	l0.232,0.823c0.063,0.209,0.112,0.394,0.147,0.562c0.033,0.167,0.049,0.325,0.049,0.472c0,0.15-0.024,0.272-0.073,0.364
	c-0.049,0.095-0.129,0.162-0.232,0.214c-0.108,0.053-0.266,0.101-0.477,0.143v0.312h2.939v-0.312
	c-0.189-0.046-0.342-0.12-0.453-0.217C284.975,91.169,284.881,91.033,284.803,90.857z M280.146,88.349l1.455-4.116l1.213,4.116
	H280.146z M290.369,87.61c-0.301-0.236-0.725-0.489-1.27-0.76c-0.453-0.224-0.791-0.424-1.021-0.602
	c-0.233-0.181-0.401-0.374-0.506-0.581c-0.111-0.209-0.164-0.464-0.164-0.768c0-0.284,0.062-0.53,0.188-0.736
	c0.125-0.207,0.301-0.358,0.521-0.463c0.221-0.099,0.467-0.152,0.744-0.152c0.316,0,0.576,0.039,0.775,0.123
	c0.201,0.084,0.375,0.229,0.522,0.438c0.147,0.207,0.272,0.499,0.371,0.874h0.631V83.26c-0.463-0.12-0.849-0.196-1.157-0.229
	c-0.305-0.035-0.625-0.053-0.947-0.053c-0.555,0-1.05,0.097-1.482,0.287c-0.428,0.188-0.755,0.459-0.98,0.812
	c-0.225,0.349-0.334,0.76-0.334,1.239c0,0.328,0.07,0.631,0.215,0.905c0.14,0.278,0.356,0.532,0.646,0.771s0.685,0.48,1.183,0.725
	c0.512,0.258,0.896,0.481,1.146,0.674c0.252,0.188,0.436,0.392,0.543,0.609c0.107,0.219,0.168,0.489,0.168,0.807
	c0,0.498-0.131,0.876-0.396,1.137c-0.268,0.261-0.648,0.39-1.146,0.39c-0.366,0-0.66-0.05-0.889-0.153
	c-0.23-0.103-0.416-0.264-0.562-0.48c-0.145-0.219-0.258-0.514-0.344-0.889l-0.006,0.005h-0.639v1.75
	c0.873,0.226,1.646,0.338,2.312,0.338c0.414,0,0.793-0.044,1.142-0.13c0.348-0.088,0.648-0.231,0.895-0.422
	c0.248-0.193,0.443-0.445,0.586-0.753c0.141-0.312,0.209-0.691,0.209-1.137c0-0.4-0.082-0.75-0.25-1.049
	C290.9,88.11,290.668,87.842,290.369,87.61z M292.214,85.312h0.634c0.08-0.344,0.168-0.622,0.26-0.849
	c0.092-0.224,0.193-0.397,0.305-0.518c0.107-0.121,0.229-0.2,0.357-0.239c0.129-0.038,0.295-0.058,0.496-0.058h0.803v6.536
	c0,0.255-0.01,0.445-0.031,0.58c-0.028,0.129-0.059,0.234-0.1,0.312c-0.039,0.077-0.09,0.137-0.152,0.188
	c-0.059,0.05-0.139,0.091-0.236,0.126c-0.1,0.034-0.213,0.065-0.34,0.097V91.8h2.918v-0.311c-0.209-0.046-0.361-0.095-0.459-0.146
	c-0.097-0.049-0.173-0.114-0.232-0.201c-0.059-0.085-0.104-0.205-0.127-0.354c-0.028-0.151-0.043-0.349-0.043-0.599v-6.536h0.812
	c0.23,0,0.406,0.02,0.523,0.068c0.116,0.048,0.226,0.125,0.328,0.235c0.104,0.109,0.198,0.271,0.291,0.483
	c0.088,0.213,0.182,0.502,0.276,0.868h0.625v-2.225h-6.906L292.214,85.312z M306.808,90.937c-0.116-0.161-0.262-0.394-0.428-0.701
	l-0.576-1.047c-0.22-0.418-0.425-0.729-0.61-0.923c-0.188-0.198-0.408-0.352-0.666-0.455v-0.055c0.638-0.229,1.123-0.551,1.44-0.958
	c0.32-0.406,0.482-0.9,0.482-1.484c0-0.765-0.246-1.327-0.74-1.688c-0.494-0.358-1.238-0.542-2.234-0.542h-3.155v0.312
	c0.192,0.052,0.332,0.103,0.414,0.147s0.142,0.107,0.19,0.183c0.046,0.073,0.084,0.176,0.105,0.312
	c0.019,0.134,0.032,0.349,0.032,0.643v5.521c0,0.313-0.018,0.549-0.04,0.7c-0.032,0.155-0.091,0.27-0.181,0.354
	c-0.089,0.083-0.263,0.16-0.526,0.229v0.312h2.69v-0.312c-0.192-0.055-0.334-0.105-0.414-0.15c-0.082-0.046-0.142-0.103-0.188-0.173
	c-0.044-0.071-0.082-0.173-0.105-0.312c-0.019-0.141-0.035-0.359-0.035-0.666v-2.165h0.697c0.207,0,0.365,0.011,0.469,0.031
	c0.105,0.026,0.201,0.069,0.293,0.132c0.097,0.057,0.196,0.169,0.304,0.319c0.106,0.153,0.247,0.395,0.418,0.715l0.562,1.064
	c0.144,0.269,0.283,0.532,0.428,0.791c0.147,0.26,0.302,0.502,0.459,0.729h1.771v-0.312c-0.205-0.035-0.369-0.096-0.492-0.18
	C307.048,91.221,306.927,91.099,306.808,90.937z M303.884,87.38c-0.226,0.057-0.526,0.081-0.896,0.081h-0.726v-3.792
	c0.238-0.016,0.55-0.023,0.937-0.022c0.475,0,0.855,0.067,1.135,0.21c0.281,0.138,0.49,0.342,0.629,0.61
	c0.139,0.271,0.207,0.605,0.207,1.011c0,0.385-0.057,0.712-0.174,0.979c-0.117,0.268-0.278,0.476-0.469,0.621
	C304.327,87.229,304.114,87.328,303.884,87.38z M312.743,83.398c0.26,0.065,0.43,0.141,0.514,0.21
	c0.082,0.074,0.146,0.175,0.183,0.312c0.032,0.14,0.053,0.393,0.053,0.763v3.986c0,0.522-0.025,0.94-0.08,1.251
	c-0.054,0.31-0.162,0.572-0.312,0.785c-0.147,0.212-0.335,0.374-0.562,0.479c-0.222,0.102-0.486,0.153-0.783,0.153
	c-0.329,0-0.594-0.037-0.811-0.104c-0.219-0.07-0.406-0.188-0.564-0.34c-0.156-0.154-0.279-0.373-0.365-0.654
	c-0.088-0.279-0.131-0.627-0.131-1.039v-4.52c0-0.352,0.021-0.6,0.051-0.747c0.035-0.148,0.098-0.263,0.191-0.335
	c0.094-0.073,0.26-0.141,0.498-0.201v-0.312h-2.682v0.312c0.209,0.052,0.352,0.104,0.426,0.153c0.078,0.052,0.137,0.112,0.178,0.179
	c0.041,0.065,0.073,0.161,0.094,0.275c0.021,0.116,0.031,0.344,0.031,0.676v4.198c0,0.544,0.053,1,0.16,1.355
	c0.11,0.356,0.282,0.665,0.52,0.926c0.24,0.259,0.55,0.451,0.912,0.563c0.369,0.113,0.811,0.173,1.326,0.173
	c0.421,0,0.795-0.045,1.109-0.134c0.316-0.094,0.582-0.214,0.805-0.366c0.221-0.155,0.409-0.344,0.555-0.565
	c0.162-0.247,0.283-0.532,0.363-0.85c0.086-0.336,0.129-0.735,0.129-1.199l-0.008,0.003v-4.104c0-0.349,0.022-0.596,0.051-0.741
	c0.035-0.145,0.098-0.255,0.189-0.332c0.092-0.075,0.262-0.148,0.508-0.21v-0.312h-2.547V83.398z M320.292,82.972
	c-0.773,0-1.441,0.188-1.998,0.562c-0.557,0.375-0.979,0.902-1.266,1.59c-0.288,0.688-0.435,1.484-0.435,2.396
	c0,1.45,0.275,2.542,0.828,3.271c0.555,0.733,1.371,1.1,2.451,1.1c0.502,0,0.963-0.025,1.383-0.079
	c0.417-0.052,0.831-0.135,1.229-0.239v-1.825h-0.632c-0.139,0.421-0.281,0.741-0.434,0.957c-0.152,0.218-0.338,0.376-0.559,0.479
	c-0.221,0.097-0.503,0.146-0.855,0.146c-0.459,0-0.846-0.146-1.162-0.45c-0.314-0.3-0.553-0.741-0.715-1.334
	c-0.162-0.59-0.242-1.302-0.242-2.135c0-0.829,0.101-1.537,0.293-2.122c0.2-0.583,0.47-1.02,0.812-1.312
	c0.344-0.292,0.731-0.438,1.17-0.438c0.295,0,0.547,0.047,0.754,0.143c0.209,0.094,0.392,0.25,0.551,0.47s0.289,0.515,0.394,0.885
	h0.631v-1.769c-0.422-0.111-0.795-0.187-1.126-0.234C321.036,82.993,320.679,82.972,320.292,82.972z M323.612,83.086h-0.003v2.227
	h0.633c0.08-0.344,0.168-0.622,0.26-0.849c0.09-0.224,0.196-0.397,0.303-0.518c0.109-0.121,0.23-0.2,0.361-0.239
	c0.129-0.038,0.293-0.058,0.494-0.058h0.803v6.536c0,0.255-0.012,0.445-0.035,0.58c-0.021,0.129-0.055,0.234-0.096,0.312
	s-0.09,0.137-0.152,0.188c-0.058,0.05-0.138,0.091-0.235,0.126c-0.103,0.034-0.213,0.065-0.341,0.097V91.8h2.919v-0.311
	c-0.21-0.046-0.363-0.095-0.464-0.146c-0.094-0.049-0.172-0.114-0.229-0.201c-0.059-0.085-0.104-0.204-0.129-0.354
	c-0.027-0.151-0.041-0.349-0.041-0.599v-6.536h0.811c0.234,0,0.41,0.02,0.525,0.068c0.119,0.048,0.226,0.125,0.33,0.235
	c0.102,0.109,0.199,0.271,0.291,0.483c0.087,0.213,0.179,0.502,0.272,0.868h0.627v-2.225h-6.903L323.612,83.086z M336.319,83.398
	c0.258,0.065,0.43,0.141,0.514,0.21c0.082,0.074,0.146,0.175,0.178,0.312c0.037,0.14,0.058,0.393,0.058,0.763v3.986
	c0,0.522-0.027,0.94-0.082,1.251c-0.059,0.31-0.162,0.572-0.312,0.785c-0.147,0.212-0.335,0.374-0.562,0.479
	c-0.227,0.102-0.486,0.153-0.785,0.153c-0.326,0-0.593-0.037-0.812-0.104c-0.218-0.07-0.403-0.188-0.562-0.34
	c-0.156-0.154-0.279-0.373-0.367-0.654c-0.088-0.279-0.131-0.627-0.131-1.039v-4.52c0-0.352,0.018-0.6,0.051-0.747
	c0.035-0.148,0.098-0.263,0.193-0.335c0.092-0.073,0.258-0.141,0.498-0.201v-0.312h-2.687v0.312
	c0.209,0.052,0.354,0.104,0.431,0.153c0.073,0.052,0.137,0.112,0.176,0.179c0.041,0.065,0.074,0.161,0.094,0.275
	c0.021,0.116,0.033,0.344,0.033,0.676v4.198c0,0.544,0.051,1.001,0.158,1.355c0.107,0.356,0.279,0.667,0.52,0.926
	s0.545,0.451,0.914,0.563c0.367,0.113,0.804,0.173,1.324,0.173c0.423,0,0.795-0.045,1.106-0.134
	c0.319-0.094,0.582-0.214,0.808-0.366c0.221-0.155,0.409-0.344,0.557-0.565c0.16-0.247,0.281-0.532,0.361-0.85
	c0.086-0.336,0.129-0.735,0.129-1.199l-0.006,0.003v-4.104c0-0.349,0.02-0.596,0.053-0.741c0.036-0.145,0.099-0.255,0.188-0.332
	c0.092-0.075,0.262-0.148,0.508-0.21v-0.312h-2.545V83.398z M346.675,90.937c-0.119-0.161-0.264-0.394-0.428-0.701l-0.574-1.047
	c-0.222-0.418-0.427-0.729-0.615-0.923c-0.186-0.198-0.405-0.352-0.668-0.455v-0.055c0.641-0.229,1.123-0.551,1.445-0.958
	c0.322-0.406,0.482-0.9,0.482-1.484c0-0.765-0.246-1.327-0.74-1.688c-0.494-0.358-1.238-0.542-2.234-0.542h-3.16v0.312
	c0.197,0.052,0.336,0.103,0.414,0.147c0.082,0.045,0.146,0.107,0.195,0.183c0.047,0.073,0.083,0.176,0.104,0.312
	c0.021,0.134,0.031,0.349,0.031,0.643v5.521c0,0.313-0.014,0.549-0.041,0.7c-0.027,0.155-0.086,0.27-0.176,0.354
	c-0.09,0.083-0.261,0.16-0.531,0.229v0.312h2.695v-0.312c-0.195-0.055-0.334-0.105-0.416-0.15c-0.08-0.046-0.138-0.103-0.191-0.173
	c-0.045-0.071-0.083-0.173-0.104-0.312c-0.023-0.141-0.035-0.359-0.035-0.666v-2.165h0.701c0.207,0,0.365,0.011,0.469,0.031
	c0.105,0.026,0.203,0.069,0.293,0.132c0.092,0.057,0.194,0.169,0.301,0.319c0.107,0.153,0.246,0.395,0.418,0.715l0.562,1.064
	c0.141,0.269,0.282,0.532,0.428,0.791c0.147,0.26,0.297,0.502,0.459,0.729h1.771v-0.312c-0.205-0.035-0.369-0.096-0.49-0.18
	C346.915,91.221,346.794,91.099,346.675,90.937z M343.749,87.38c-0.23,0.057-0.529,0.081-0.898,0.081h-0.723v-3.792
	c0.239-0.016,0.549-0.023,0.932-0.022c0.481,0,0.858,0.067,1.142,0.21c0.277,0.138,0.486,0.342,0.627,0.61
	c0.139,0.271,0.207,0.605,0.207,1.011c0,0.385-0.062,0.712-0.174,0.979c-0.119,0.268-0.278,0.476-0.474,0.621
	C344.192,87.229,343.978,87.328,343.749,87.38z M353.702,89.556c-0.086,0.288-0.152,0.509-0.201,0.657
	c-0.049,0.154-0.114,0.3-0.182,0.438c-0.072,0.143-0.156,0.255-0.25,0.343c-0.097,0.087-0.205,0.152-0.334,0.188
	c-0.131,0.034-0.304,0.054-0.513,0.054h-1.979v-3.682h1.365c0.196,0,0.347,0.024,0.446,0.079c0.104,0.054,0.19,0.149,0.258,0.278
	c0.072,0.13,0.139,0.321,0.197,0.577h0.604v-2.451h-0.604c-0.058,0.275-0.131,0.476-0.199,0.603
	c-0.072,0.126-0.16,0.217-0.266,0.271c-0.104,0.054-0.25,0.08-0.438,0.08h-1.365v-3.345h2.016c0.168,0,0.313,0.011,0.428,0.034
	c0.123,0.024,0.225,0.068,0.312,0.131c0.088,0.065,0.168,0.15,0.24,0.255c0.069,0.105,0.143,0.239,0.211,0.396
	c0.063,0.157,0.131,0.339,0.192,0.548h0.625v-1.928L348.3,83.08v0.312c0.197,0.052,0.336,0.103,0.416,0.147s0.145,0.107,0.195,0.183
	c0.047,0.073,0.084,0.176,0.104,0.312c0.021,0.134,0.031,0.348,0.031,0.643v5.521c0,0.312-0.014,0.549-0.039,0.7
	c-0.03,0.155-0.088,0.27-0.176,0.354c-0.092,0.083-0.263,0.16-0.531,0.229v0.312h5.914l0.119-2.236H353.702z M183.098,61.977
	c1.928-0.406,3.157-2.291,2.758-4.219c-0.373-1.783-2.022-2.956-3.794-2.801l-5.046-12.042c0.25-0.192,0.479-0.403,0.688-0.637
	l6.719,3.513c-0.079,0.439-0.082,0.899,0.016,1.363c0.404,1.927,2.291,3.16,4.217,2.758c1.926-0.406,3.158-2.291,2.758-4.218
	c-0.405-1.925-2.291-3.159-4.219-2.756c-0.749,0.157-1.389,0.543-1.873,1.064l-6.616-3.459c0.224-0.668,0.303-1.387,0.221-2.124
	l6.918-2.934c0.813,1.012,2.141,1.551,3.5,1.267c1.925-0.403,3.158-2.291,2.755-4.216c-0.402-1.926-2.289-3.16-4.216-2.756
	c-1.805,0.379-2.984,2.059-2.796,3.854l-6.78,2.875c-0.275-0.482-0.618-0.91-1.026-1.269l6.44-10.557
	c0.521,0.139,1.077,0.176,1.642,0.058c1.926-0.405,3.158-2.291,2.756-4.217c-0.403-1.926-2.289-3.159-4.217-2.756
	c-1.926,0.403-3.16,2.29-2.756,4.216c0.135,0.646,0.447,1.205,0.862,1.659l-6.468,10.605c-0.805-0.265-1.68-0.348-2.568-0.163
	c-1.534,0.322-2.734,1.327-3.396,2.621l-5.993-0.205c-0.02-0.113-0.03-0.225-0.053-0.337c-0.829-3.956-3.938-6.847-7.667-7.59
	l-0.057-6.13c1.94-0.871,3.118-2.91,2.889-5.067l12.64-5.523c0.823,0.838,2.037,1.258,3.272,1.001
	c1.925-0.404,3.16-2.29,2.756-4.216c-0.403-1.926-2.291-3.16-4.216-2.759c-1.92,0.405-3.154,2.281-2.759,4.203l-12.305,5.376
	c-0.219-0.388-0.474-0.749-0.781-1.059l4.457-6.573c0.559,0.173,1.164,0.227,1.777,0.1c1.926-0.406,3.159-2.29,2.756-4.219
	c-0.402-1.926-2.29-3.158-4.216-2.756c-1.926,0.404-3.16,2.291-2.757,4.216c0.125,0.598,0.405,1.117,0.772,1.553l-4.449,6.562
	c-0.807-0.33-1.709-0.43-2.624-0.291l-2.16-6.49c1.156-0.788,1.786-2.218,1.482-3.672c-0.403-1.926-2.291-3.16-4.217-2.756
	c-1.925,0.403-3.16,2.29-2.757,4.215c0.359,1.713,1.895,2.872,3.586,2.823l2.186,6.568c-0.433,0.269-0.812,0.597-1.139,0.976
	l-10.371-5.781c0.109-0.484,0.127-0.995,0.019-1.513c-0.402-1.926-2.291-3.16-4.216-2.758c-1.926,0.406-3.161,2.291-2.758,4.218
	c0.405,1.925,2.292,3.158,4.218,2.756c0.695-0.146,1.296-0.49,1.766-0.954l10.369,5.78c-0.251,0.792-0.33,1.649-0.148,2.519
	c0.347,1.654,1.479,2.937,2.923,3.556l0.057,6.14c-5.239,1.142-8.587,6.299-7.485,11.56c0.086,0.41,0.204,0.803,0.337,1.189
	l-5.755,3.442c-1.093-0.775-2.484-1.122-3.899-0.826c-0.004,0.001-0.007,0.002-0.011,0.003l-8.328-21.866
	c0.939-0.819,1.432-2.097,1.158-3.405c-0.404-1.926-2.291-3.159-4.217-2.756c-1.926,0.406-3.16,2.29-2.757,4.219
	c0.388,1.849,2.147,3.042,3.993,2.779l8.314,21.83c-0.009,0.007-0.017,0.016-0.026,0.022l-10.929-11.296
	c0.477-0.755,0.676-1.686,0.479-2.629c-0.403-1.927-2.29-3.159-4.216-2.759c-1.926,0.406-3.161,2.29-2.757,4.219
	c0.404,1.925,2.291,3.156,4.217,2.756c0.274-0.058,0.529-0.152,0.772-0.265l11.077,11.45c-0.087,0.144-0.163,0.295-0.235,0.448
	l-8.318-1.423c-0.013-0.115-0.012-0.229-0.037-0.346c-0.403-1.925-2.29-3.158-4.216-2.756c-1.926,0.407-3.16,2.291-2.757,4.22
	c0.404,1.925,2.292,3.155,4.218,2.755c1.108-0.232,1.974-0.965,2.443-1.905l8.186,1.4c-0.015,0.398,0.002,0.802,0.087,1.209
	c0.101,0.481,0.288,0.918,0.51,1.329l-4.457,4.004c-0.695-0.35-1.501-0.488-2.322-0.316c-1.926,0.404-3.16,2.289-2.757,4.216
	c0.404,1.925,2.291,3.16,4.217,2.757c1.926-0.404,3.159-2.292,2.757-4.217c-0.082-0.39-0.237-0.74-0.428-1.065l4.277-3.843
	c0.722,0.571,1.589,0.937,2.525,1.043l1.328,12.209c-1.615,0.61-2.598,2.306-2.234,4.052c0.405,1.925,2.292,3.157,4.218,2.756
	c1.926-0.404,3.159-2.291,2.757-4.216c-0.298-1.424-1.409-2.464-2.745-2.75l-1.33-12.233c0.268-0.08,0.526-0.175,0.771-0.296
	l11.844,17.573c-0.626,0.798-0.921,1.847-0.697,2.919c0.404,1.927,2.291,3.161,4.217,2.757c1.926-0.405,3.159-2.291,2.757-4.217
	c-0.403-1.926-2.291-3.16-4.217-2.756c-0.15,0.031-0.287,0.087-0.428,0.136L139.863,52.08c0.876-1.034,1.316-2.404,1.138-3.827
	l5.766-3.449c2.258,2.44,5.698,3.678,9.19,2.947c3.805-0.796,6.615-3.708,7.487-7.247l5.894,0.201
	c0.581,1.561,1.886,2.69,3.446,3.083l-1.56,20.831c-1.886,0.435-3.089,2.292-2.691,4.195c0.404,1.926,2.292,3.16,4.218,2.756
	s3.159-2.291,2.756-4.216c-0.263-1.258-1.161-2.208-2.286-2.612l1.563-20.867c0.077-0.013,0.153-0.008,0.23-0.024
	c0.069-0.014,0.129-0.045,0.196-0.062l4.984,11.893c-1.044,0.809-1.603,2.157-1.315,3.537
	C179.285,61.146,181.171,62.378,183.098,61.977z"/>
</svg>
